<?xml version="1.0" encoding="UTF-8"?><svg xmlns="http://www.w3.org/2000/svg" viewBox="0 0 1080 668.29"><defs><style>.d{fill:#fff;}.e,.f,.g{font-family:SFProRounded-Bold, SF Pro Rounded;}.e,.f,.h{fill:#40a4ff;}.e,.g{font-size:80.98px;}.i{fill:#462e80;}.j{letter-spacing:0em;}.k{letter-spacing:-.02em;}.f{font-size:29.25px;}.l{fill:none;}.g,.m{fill:#200096;}.n{fill:#5535aa;}</style></defs><g id="a"/><g id="b"><g id="c"><g><g><g><rect class="n" x="236.45" y="543.06" width="246.96" height="46.6" rx="10.23" ry="10.23"/><path class="n" d="M473.17,435.45h-201.2l-24.15-13.94c-5.06-2.92-11.38,.73-11.38,6.57v90.33c0,5.63,4.61,10.23,10.23,10.23h226.49c5.63,0,10.23-4.61,10.23-10.23v-72.72c0-5.63-4.61-10.23-10.23-10.23Z"/></g><path class="n" d="M790.26,434.36l-24.15,13.94h-201.2c-5.63,0-10.23,4.61-10.23,10.23v72.72c0,5.63,4.61,10.23,10.23,10.23h226.49c5.63,0,10.23-4.61,10.23-10.23v-90.33c0-5.84-6.32-9.49-11.38-6.57Z"/><g><path class="n" d="M791.41,560.06c3.44,0,6.23,2.8,6.23,6.23v26.13c0,3.44-2.8,6.23-6.23,6.23h-226.49c-3.44,0-6.23-2.8-6.23-6.23v-26.13c0-3.44,2.8-6.23,6.23-6.23h226.49m0-4h-226.49c-5.63,0-10.23,4.61-10.23,10.23v26.13c0,5.63,4.61,10.23,10.23,10.23h226.49c5.63,0,10.23-4.61,10.23-10.23v-26.13c0-5.63-4.61-10.23-10.23-10.23h0Z"/><path class="n" d="M746.5,575.92c-.71-1.72-2.47-2.49-4.21-2.13-1.18,.24-2.16,.91-3.03,1.74-.48-.78-1.07-1.48-1.85-1.95-1.5-.89-4.25-1.02-5.72,.16-1.15,.92-1.62,2.67-1.67,4.16-.05,1.64,1.15,3.18,2.07,4.43,1.05,1.42,2.51,2.35,3.97,3.23,.03,.02,.06,.03,.09,.05,.34,.23,.77,.28,1.2,.15,.07-.02,.13-.04,.19-.07h.01c2.7-1.27,5.55-2.38,7.64-4.77,1.16-1.32,2-3.32,1.3-5Z"/><g><circle class="n" cx="613.1" cy="579.36" r="4.12"/><circle class="n" cx="637.35" cy="579.36" r="4.12"/><circle class="n" cx="661.6" cy="579.36" r="4.12"/><circle class="n" cx="685.85" cy="579.36" r="4.12"/><circle class="n" cx="710.1" cy="579.36" r="4.12"/></g></g></g><g><path class="n" d="M730.48,625.7c4.41,0,8,3.59,8,8v22.6c0,4.41-3.59,8-8,8H248.45c-4.41,0-8-3.59-8-8v-22.6c0-4.41,3.59-8,8-8h482.03m0-4H248.45c-6.6,0-12,5.4-12,12v22.6c0,6.6,5.4,12,12,12h482.03c6.6,0,12-5.4,12-12v-22.6c0-6.6-5.4-12-12-12h0Z"/><rect class="n" x="755.04" y="621.7" width="46.6" height="46.6" rx="12" ry="12"/><g><path class="i" d="M260.1,655.06c-.08-.14-.11-.26-.11-.4,0-.24,.16-.4,.42-.4,.17,0,.29,.09,.41,.31,.6,1.17,1.84,2.08,3.78,2.08,2.54,.01,4.11-1.45,4.11-3.63v-3.06h-.02c-.53,1.86-2.23,3.32-4.45,3.32-2.97,0-5.01-2.47-5.01-6.13s2.05-6.14,5.03-6.14c2.26,0,3.89,1.49,4.44,3.29h.02v-2.82c0-.29,.19-.47,.45-.47s.45,.18,.45,.47v11.51c0,2.67-1.93,4.45-5.04,4.44-2.29,0-3.87-1.06-4.46-2.36Zm8.61-7.92c0-3.16-1.79-5.34-4.34-5.34s-4.26,2.15-4.26,5.35,1.72,5.31,4.26,5.31,4.34-2.18,4.34-5.32Z"/><path class="i" d="M276.79,637.55c0-.39,.32-.69,.7-.69s.7,.3,.7,.69-.32,.7-.7,.7-.7-.31-.7-.7Zm.25,15.27v-11.34c0-.29,.18-.48,.45-.48s.45,.2,.45,.48v11.34c0,.29-.18,.48-.45,.48s-.45-.2-.45-.48Z"/><path class="i" d="M286.05,641.96h-1.47c-.28,0-.42-.15-.42-.38,0-.25,.15-.39,.42-.39h1.47v-2.8c0-.29,.17-.47,.44-.47s.45,.18,.45,.47v2.8h2.09c.26,0,.42,.14,.42,.39,0,.23-.16,.38-.42,.38h-2.09v8.42c0,1.4,.49,1.95,1.7,1.97h.55c.29,.01,.44,.15,.44,.38,0,.26-.16,.41-.59,.41h-.54c-1.66,0-2.44-.78-2.44-2.64v-8.55Z"/><path class="i" d="M296.34,652.83v-15.97c0-.29,.17-.47,.45-.47s.44,.18,.44,.47v6.93h.03c.53-1.65,2.11-2.78,4.12-2.78,2.62,0,4.36,1.73,4.36,4.39v7.42c0,.29-.18,.48-.45,.48s-.44-.2-.44-.48v-7.31c0-2.29-1.46-3.71-3.67-3.71-2.34,0-3.96,1.72-3.96,4.2v6.82c0,.29-.17,.48-.44,.48s-.45-.2-.45-.48Z"/><path class="i" d="M312.95,648.96v-7.47c0-.29,.18-.48,.44-.48s.45,.2,.45,.48v7.33c0,2.33,1.43,3.68,3.6,3.68s3.97-1.63,3.97-4.15v-6.86c0-.29,.18-.48,.45-.48s.45,.2,.45,.48v11.36c0,.26-.15,.46-.41,.46s-.42-.2-.42-.46v-2.32h-.03c-.53,1.61-2.2,2.78-4.18,2.78-2.57,0-4.3-1.68-4.3-4.35Z"/><path class="i" d="M329.75,652.85v-15.98c0-.29,.18-.48,.45-.48s.44,.19,.44,.48v7.48h.03c.6-2.02,2.31-3.34,4.44-3.34,2.97,0,5.03,2.48,5.03,6.14s-2.05,6.16-5.03,6.16c-2.11,0-3.84-1.31-4.48-3.37h-.03v2.91c0,.29-.17,.46-.42,.46s-.42-.17-.42-.46Zm9.48-5.7c0-3.18-1.71-5.34-4.26-5.34s-4.34,2.21-4.34,5.36,1.79,5.34,4.34,5.34,4.26-2.16,4.26-5.36Z"/><path class="i" d="M346.62,652.45c0-.41,.34-.76,.77-.76s.76,.34,.76,.76-.34,.77-.76,.77-.77-.34-.77-.77Z"/><path class="i" d="M354.81,647.18c0-3.78,2.07-6.17,5.26-6.17,2.21,0,4.08,1.26,4.61,3.16,.03,.1,.06,.23,.06,.32,0,.24-.15,.4-.39,.4-.22,0-.33-.12-.42-.33-.53-1.78-2.04-2.74-3.84-2.74-2.67,0-4.37,2.08-4.37,5.35s1.69,5.35,4.38,5.35c1.79,0,3.32-.93,3.82-2.66,.09-.23,.22-.33,.42-.33,.24,0,.39,.17,.39,.41,0,.07-.01,.18-.06,.31-.52,1.82-2.35,3.08-4.56,3.08-3.25,0-5.3-2.36-5.3-6.13Z"/><path class="i" d="M370.92,647.16c0-3.74,2.11-6.15,5.31-6.15s5.32,2.41,5.32,6.15-2.11,6.15-5.32,6.15-5.31-2.41-5.31-6.15Zm9.74,0c0-3.27-1.74-5.35-4.43-5.35s-4.42,2.07-4.42,5.35,1.74,5.35,4.42,5.35,4.43-2.08,4.43-5.35Z"/><path class="i" d="M388.31,652.83v-11.36c0-.28,.17-.46,.41-.46,.25,0,.42,.18,.42,.46v2.32h.02c.45-1.58,1.72-2.78,3.6-2.78s3.22,1.25,3.58,2.83h.03c.41-1.54,1.84-2.83,3.79-2.83,2.29,0,3.82,1.58,3.82,4.06v7.76c0,.29-.18,.48-.45,.48s-.45-.2-.45-.48v-7.55c0-2.15-1.18-3.47-3.13-3.47s-3.37,1.6-3.37,3.89v7.12c0,.29-.17,.48-.45,.48s-.44-.2-.44-.48v-7.58c0-2.07-1.3-3.43-3.12-3.43-2,0-3.38,1.65-3.38,4.19v6.83c0,.29-.18,.48-.45,.48s-.45-.2-.45-.48Z"/><path class="i" d="M410.01,656.43c0-.07,.02-.15,.03-.21l5.69-19.48c.07-.23,.18-.36,.41-.36s.39,.15,.39,.37c0,.05-.01,.1-.02,.18l-5.71,19.52c-.06,.22-.18,.34-.39,.34-.24,0-.4-.14-.4-.37Z"/><path class="i" d="M422.74,652.83v-15.96c0-.29,.18-.48,.45-.48s.44,.19,.44,.48v10.44h.01l6.8-6.15c.11-.1,.22-.15,.36-.15,.22,0,.39,.17,.39,.38,0,.14-.06,.23-.17,.33l-5.09,4.61,5.27,6.25c.09,.11,.13,.21,.13,.32,0,.23-.17,.4-.41,.4-.15,0-.26-.06-.37-.18l-5.29-6.24-1.62,1.45v4.5c0,.29-.17,.48-.44,.48s-.45-.2-.45-.48Z"/><path class="i" d="M437.87,652.83v-15.97c0-.29,.17-.47,.45-.47s.44,.18,.44,.47v6.93h.03c.53-1.65,2.11-2.78,4.12-2.78,2.62,0,4.36,1.73,4.36,4.39v7.42c0,.29-.18,.48-.45,.48s-.44-.2-.44-.48v-7.31c0-2.29-1.46-3.71-3.67-3.71-2.34,0-3.96,1.72-3.96,4.2v6.82c0,.29-.17,.48-.44,.48s-.45-.2-.45-.48Z"/><path class="i" d="M454.39,637.55c0-.39,.32-.69,.7-.69s.7,.3,.7,.69-.32,.7-.7,.7-.7-.31-.7-.7Zm.25,15.27v-11.34c0-.29,.18-.48,.45-.48s.45,.2,.45,.48v11.34c0,.29-.18,.48-.45,.48s-.45-.2-.45-.48Z"/><path class="i" d="M462.39,647.22c0-3.79,2.08-6.21,5.23-6.21s5.12,2.31,5.12,5.68c0,.39-.23,.62-.63,.62h-8.81c0,3.29,1.73,5.21,4.44,5.21,1.97,0,3.43-.96,4-2.64,.07-.16,.17-.26,.37-.26,.23,0,.4,.16,.4,.4,0,.08-.03,.22-.07,.32-.57,1.82-2.36,2.97-4.67,2.97-3.32,0-5.38-2.26-5.38-6.09Zm9.43-.65c-.01-2.83-1.7-4.76-4.2-4.76s-4.19,1.89-4.31,4.76h8.51Z"/><path class="i" d="M479.47,652.83v-11.36c0-.28,.17-.46,.41-.46,.25,0,.42,.18,.42,.46v2.32h.02c.45-1.58,1.72-2.78,3.6-2.78s3.22,1.25,3.58,2.83h.03c.41-1.54,1.84-2.83,3.79-2.83,2.29,0,3.82,1.58,3.82,4.06v7.76c0,.29-.18,.48-.45,.48s-.45-.2-.45-.48v-7.55c0-2.15-1.18-3.47-3.13-3.47s-3.37,1.6-3.37,3.89v7.12c0,.29-.17,.48-.45,.48s-.44-.2-.44-.48v-7.58c0-2.07-1.3-3.43-3.12-3.43-2,0-3.38,1.65-3.38,4.19v6.83c0,.29-.18,.48-.45,.48s-.45-.2-.45-.48Z"/><path class="i" d="M502.42,652.83v-11.36c0-.28,.17-.46,.41-.46,.25,0,.42,.18,.42,.46v2.32h.02c.56-1.68,2.11-2.78,4.17-2.78,2.57,0,4.33,1.7,4.33,4.38v7.44c0,.29-.18,.48-.45,.48s-.45-.2-.45-.48v-7.32c0-2.31-1.47-3.7-3.64-3.7-2.36,0-3.92,1.71-3.92,4.19v6.83c0,.29-.18,.48-.45,.48s-.45-.2-.45-.48Z"/><path class="i" d="M519.34,655.06c-.08-.14-.11-.26-.11-.4,0-.24,.16-.4,.42-.4,.17,0,.29,.09,.41,.31,.6,1.17,1.84,2.08,3.77,2.08,2.54,.01,4.11-1.45,4.11-3.63v-3.06h-.02c-.53,1.86-2.23,3.32-4.45,3.32-2.97,0-5.01-2.47-5.01-6.13s2.05-6.14,5.03-6.14c2.26,0,3.89,1.49,4.44,3.29h.02v-2.82c0-.29,.2-.47,.45-.47s.45,.18,.45,.47v11.51c0,2.67-1.93,4.45-5.04,4.44-2.29,0-3.87-1.06-4.46-2.36Zm8.61-7.92c0-3.16-1.79-5.34-4.34-5.34s-4.26,2.15-4.26,5.35,1.72,5.31,4.26,5.31,4.34-2.18,4.34-5.32Z"/><path class="i" d="M536.11,648.96v-7.47c0-.29,.18-.48,.44-.48s.45,.2,.45,.48v7.33c0,2.33,1.43,3.68,3.6,3.68s3.97-1.63,3.97-4.15v-6.86c0-.29,.18-.48,.45-.48s.45,.2,.45,.48v11.36c0,.26-.15,.46-.41,.46s-.42-.2-.42-.46v-2.32h-.03c-.53,1.61-2.2,2.78-4.18,2.78-2.57,0-4.3-1.68-4.3-4.35Z"/><path class="i" d="M552.68,656.75c0-.21,.14-.33,.37-.33,.16,0,.26,.04,.52,.04,.96,0,1.56-.55,2.18-2.19l.38-.98-4.43-11.62c-.02-.08-.04-.16-.04-.24,0-.25,.19-.41,.46-.41,.23,0,.34,.1,.42,.34l4.05,10.91h.03l4.05-10.91c.09-.24,.21-.34,.42-.34,.26,0,.46,.16,.46,.41,0,.08-.02,.16-.05,.24l-4.58,12.04c-1.07,2.83-1.75,3.54-3.36,3.54-.49,0-.88-.15-.88-.49Z"/><path class="i" d="M567.05,647.22c0-3.79,2.08-6.21,5.23-6.21s5.12,2.31,5.12,5.68c0,.39-.23,.62-.63,.62h-8.81c0,3.29,1.73,5.21,4.44,5.21,1.97,0,3.43-.96,4-2.64,.07-.16,.17-.26,.37-.26,.23,0,.4,.16,.4,.4,0,.08-.04,.22-.07,.32-.57,1.82-2.36,2.97-4.67,2.97-3.32,0-5.38-2.26-5.38-6.09Zm9.43-.65c-.01-2.83-1.7-4.76-4.2-4.76s-4.19,1.89-4.31,4.76h8.51Z"/><path class="i" d="M584.13,652.83v-11.36c0-.28,.17-.46,.41-.46,.25,0,.42,.18,.42,.46v2.32h.02c.56-1.68,2.11-2.78,4.17-2.78,2.57,0,4.33,1.7,4.33,4.38v7.44c0,.29-.18,.48-.45,.48s-.45-.2-.45-.48v-7.32c0-2.31-1.47-3.7-3.64-3.7-2.36,0-3.92,1.71-3.92,4.19v6.83c0,.29-.18,.48-.45,.48s-.45-.2-.45-.48Z"/><path class="i" d="M601.1,652.92c0-.09,.01-.18,.08-.31l7.7-15.18v-.03h-9.23c-.25,0-.44-.16-.44-.41s.18-.41,.44-.41h9.57c.38,0,.62,.21,.62,.57,0,.2-.06,.33-.18,.59l-7.7,15.28c-.1,.21-.23,.3-.42,.3-.26,0-.44-.15-.44-.39Z"/><path class="i" d="M621.01,652.83v-15.26h-.03l-4.04,2.6c-.1,.07-.2,.1-.32,.1-.22,0-.38-.16-.38-.4,0-.17,.06-.29,.26-.41l4.43-2.87c.22-.16,.32-.21,.53-.21,.28,0,.45,.17,.45,.46v15.98c0,.29-.18,.48-.45,.48s-.45-.2-.45-.48Z"/><path class="i" d="M630.5,652.71c0-.2,.06-.3,.26-.52l5.62-5.94c2.52-2.69,3.26-3.81,3.26-5.36,0-2.12-1.75-3.75-4.05-3.75-2.49,0-3.95,1.72-4.22,3.67-.05,.23-.16,.37-.42,.37s-.42-.18-.42-.44c0-.13,.01-.24,.03-.41,.3-2.2,2.21-4,5-4s4.99,1.93,4.99,4.53c0,1.74-.85,3.1-3.59,5.98l-5.13,5.42v.05h9.02c.26,0,.44,.16,.44,.41s-.17,.41-.44,.41h-9.86c-.29,0-.49-.15-.49-.41Z"/><path class="i" d="M646.93,656.43c0-.07,.02-.15,.04-.21l5.69-19.48c.07-.23,.18-.36,.41-.36s.39,.15,.39,.37c0,.05-.01,.1-.02,.18l-5.71,19.52c-.06,.22-.18,.34-.39,.34-.24,0-.4-.14-.4-.37Z"/><path class="i" d="M659.67,652.85v-15.98c0-.29,.18-.48,.45-.48s.44,.19,.44,.48v7.48h.04c.6-2.02,2.31-3.34,4.44-3.34,2.97,0,5.03,2.48,5.03,6.14s-2.05,6.16-5.03,6.16c-2.11,0-3.84-1.31-4.48-3.37h-.03v2.91c0,.29-.17,.46-.42,.46s-.42-.17-.42-.46Zm9.48-5.7c0-3.18-1.71-5.34-4.26-5.34s-4.34,2.21-4.34,5.36,1.79,5.34,4.34,5.34,4.26-2.16,4.26-5.36Z"/><path class="i" d="M676.73,648.96v-7.47c0-.29,.18-.48,.44-.48s.45,.2,.45,.48v7.33c0,2.33,1.43,3.68,3.6,3.68s3.97-1.63,3.97-4.15v-6.86c0-.29,.18-.48,.45-.48s.45,.2,.45,.48v11.36c0,.26-.15,.46-.41,.46s-.42-.2-.42-.46v-2.32h-.03c-.53,1.61-2.2,2.78-4.18,2.78-2.57,0-4.3-1.68-4.3-4.35Z"/><path class="i" d="M694.18,652.45c0-.41,.34-.76,.77-.76s.76,.34,.76,.76-.34,.77-.76,.77-.77-.34-.77-.77Z"/><path class="i" d="M704.58,652.45c0-.41,.34-.76,.77-.76s.76,.34,.76,.76-.34,.77-.76,.77-.77-.34-.77-.77Z"/><path class="i" d="M714.97,652.45c0-.41,.34-.76,.77-.76s.76,.34,.76,.76-.34,.77-.76,.77-.77-.34-.77-.77Z"/></g><path class="d" d="M790.12,636.09c-1.91-2.31-4.97-2.66-7.48-1.28-1.7,.93-2.88,2.42-3.83,4.11-1.11-.98-2.34-1.77-3.77-2.12-2.73-.67-7.02,.44-8.72,2.95-1.33,1.97-1.24,4.87-.6,7.19,.7,2.55,3.27,4.35,5.28,5.83,2.28,1.68,4.98,2.43,7.63,3.09,.05,.01,.11,.02,.17,.03,.64,.18,1.32,.07,1.92-.34,.09-.06,.18-.12,.26-.2h.02c3.56-3.24,7.41-6.29,9.5-10.96,1.16-2.59,1.5-6.06-.36-8.31Z"/></g><g><path class="n" d="M461.47,331.24c-16.83,.11-33.66,.23-50.49,.31-19.29,.09-38.58,.14-57.88,.02-8.64-.05-17.28-.13-25.92-.33-3.22-.07-3.22,4.93,0,5,16.77,.39,33.56,.39,50.33,.39,19.31,0,38.61-.1,57.92-.22,8.68-.05,17.35-.11,26.03-.17,3.22-.02,3.22-5.02,0-5h0Z"/><g><g><g><g><g><path class="d" d="M651.78,384.32c-3.37,.24-6.2,4.14-5.79,7.93,.42,3.79,4.01,6.68,7.31,5.88,0,0,146.36,.06,162.18-5.75,15.82-5.81,15.47-15.49,7.79-28.26,6.79-24.15,6.69-48.81-3.48-71.74,12.62-14.19,19.05-33.7,17.33-52.62-1.72-18.91-11.56-36.95-26.53-48.63,9.84,.24,16.49-8.17,15.2-17.93-1.29-9.76-11.17-16.94-21.01-16.77-12.3,.21-20.49,12.19-23.09,21.68-70.26-21.7-149.8-11.13-211.95,28.17,3.44-6.29,5.48-11.93,6.36-19.05s-1.49-15.11-7.57-18.9c-7-4.37-16.38-1.85-23.23,2.74-15.57,10.44-23.21,31.39-18.01,49.4-12.44,15.08-24.95,32.19-27.34,51.6-2.38,19.4,6.36,41.29,24.38,48.88-10.3,20.31-13.61,40.6-14.09,63.37-5.52-.27-7.81,2.85-8.66,5.77s1.29,6.04,4.03,7.36,5.91,1.29,8.96,1.24c44.2-.81,88.4-1.62,132.6-2.44"/><path class="n" d="M651.78,381.82c-7.29,.87-10.76,9.89-6.21,15.58,2.08,2.6,5.09,3.41,7.86,3.22-.31,.02,.21,0,.28,0,2.91-.05,5.83,0,8.75-.02,14.04-.04,28.07-.15,42.11-.32,18.47-.22,36.93-.55,55.39-1.13,14.87-.47,29.81-.9,44.62-2.43,3.81-.4,7.89-.67,11.54-1.93,5.13-1.77,10.7-4.79,13.26-9.83,2.27-4.46,1.73-9.57,.01-14.12-1.05-2.79-2.43-5.44-3.95-7.99l.25,1.93c3.37-12.1,5.2-24.72,4.7-37.3s-3.37-24.85-8.43-36.37l-.39,3.03c10.4-11.78,16.72-26.71,18.08-42.36s-2.55-30.57-10.5-43.51c-4.44-7.22-10.11-13.67-16.78-18.92l-1.77,4.27c6.55,.07,12.75-3.32,15.76-9.24s2.7-13.29-.73-19.02c-3.56-5.95-10.04-10.09-16.86-11.14s-13.28,1.06-18.52,5.47-9.09,11.05-10.97,17.74l3.08-1.75c-27.68-8.51-56.84-12.13-85.77-10.95s-57.53,7.04-84.46,17.47c-15.21,5.9-29.85,13.2-43.65,21.9l3.42,3.42c4.24-7.82,7.8-17.28,6.67-26.33s-6.83-16.37-16.03-17.49-17.56,3.63-23.89,9.44-10.46,12.73-13.02,20.47c-2.92,8.84-3.28,18.53-.74,27.51l.64-2.43c-11.24,13.65-22.49,28.51-26.75,46.01-3.5,14.39-1.53,30.33,6.55,42.91,4.32,6.73,10.37,12.32,17.75,15.49l-.9-3.42c-5.01,9.93-8.72,20.46-10.98,31.36s-3.2,22.11-3.45,33.27l2.5-2.5c-4.05-.12-7.95,1.4-10.01,5.06-2.18,3.87-1.43,8.38,1.99,11.29,4.16,3.55,9.94,3.07,15.04,2.97l17.84-.33c23.89-.44,47.79-.88,71.68-1.32l40.39-.74c3.21-.06,3.22-5.06,0-5-43.53,.8-87.05,1.6-130.58,2.4-3.79,.07-11.23,.99-12.58-3.96-.36-1.34,.36-2.83,1.26-3.81,1.29-1.4,3.17-1.62,4.97-1.57,1.37,.04,2.47-1.18,2.5-2.5,.48-21.53,3.98-42.73,13.75-62.11,.55-1.09,.4-2.86-.9-3.42-12.78-5.49-20.34-18.06-22.74-31.36-2.88-15.92,2.75-31.37,11.1-44.75,2.26-3.62,4.71-7.12,7.27-10.54s5.42-6.48,7.84-9.9c1.27-1.8,.24-3.73-.15-5.69-.33-1.66-.55-3.33-.65-5.02-.22-3.6-.01-7.23,.67-10.77,2.65-13.6,12.23-27.84,26.26-31.51,4.03-1.06,8.45-1.03,12.08,1.24,3.26,2.04,5.15,5.58,6,9.24,1.98,8.5-1.69,17.91-5.68,25.29-1.15,2.11,1.22,4.81,3.42,3.42,24.08-15.19,50.7-26.06,78.45-32.4,27.72-6.33,56.47-8.07,84.75-5.11,15.87,1.66,31.57,4.9,46.83,9.59,1.3,.4,2.72-.47,3.08-1.75,2.62-9.35,10.05-19.65,20.68-19.85s21.46,9.77,18.03,20.97c-1.67,5.47-6.58,8.79-12.22,8.73-1.99-.02-3.53,2.88-1.77,4.27,11.1,8.73,19.34,20.8,23.35,34.35s3.41,28.89-1.66,42.51c-2.84,7.63-7.11,14.75-12.5,20.85-.81,.92-.87,1.94-.39,3.03,7.2,16.37,9.22,34.49,6.91,52.16-.59,4.51-1.47,8.98-2.56,13.4-.47,1.9-1.72,4.31-.87,6.19,.72,1.61,1.78,3.09,2.54,4.69,2,4.22,3.48,9.38,.74,13.51-2.29,3.46-6.87,5.72-10.78,6.75-.85,.22-1.71,.39-2.57,.54-.48,.08-.95,.16-1.43,.23-.28,.04-.57,.08-.86,.13-.13,.02-.27,.04-.4,.06-.51,.07,.58-.07-.09,.01-6.53,.82-13.1,1.26-19.67,1.64-19.2,1.11-38.43,1.57-57.66,1.94-18.43,.35-36.86,.56-55.29,.67-5.74,.03-11.49,.06-17.23,.07-1.4,0-2.81,0-4.21,0-.28,0-.56-.02-.84,0-1.89,.11-3.36-.16-4.36-2.01-1.2-2.21-.16-6.45,2.77-6.8,1.35-.16,2.48-1.03,2.5-2.5,.01-1.23-1.16-2.66-2.5-2.5h0Z"/></g><g><path class="d" d="M538.47,331.92l-9.11-24.27c-.68-1.8-1.46-3.73-3.09-4.74-2.24-1.38-5.13-.5-7.6,.41l-15.73,5.8c-1.36,.5-2.8,1.06-3.69,2.21-1.58,2.07-.73,5.02,.18,7.46,4.08,10.9,7.96,19.21,12.04,30.11,.92,2.46,2.02,5.14,4.35,6.36,2.64,1.39,5.86,.41,8.67-.6l19.66-7.02"/><path class="n" d="M540.88,331.26l-5.6-14.93-2.8-7.47c-.77-2.04-1.42-4.25-2.74-6.02-3.3-4.43-8.45-3.13-12.88-1.49-4.92,1.81-9.84,3.6-14.75,5.44-2.08,.78-4.16,1.74-5.31,3.76s-1.07,4.38-.53,6.56c.56,2.29,1.55,4.49,2.41,6.68s1.82,4.56,2.75,6.82c1.83,4.45,3.7,8.89,5.47,13.36,.9,2.26,1.71,4.55,2.63,6.81,.79,1.94,1.69,3.91,3.25,5.36,4.37,4.07,10.11,1.78,14.96,.05l17.08-6.1c1.27-.45,2.12-1.7,1.75-3.08-.34-1.23-1.8-2.2-3.08-1.75l-13.34,4.76c-2.23,.8-4.46,1.61-6.7,2.39-1.65,.57-3.56,1.3-5.35,1.03-3.3-.51-4.27-5.39-5.26-7.93-1.57-4.06-3.22-8.08-4.89-12.1s-3.32-8.02-4.89-12.06c-.73-1.88-1.57-3.78-2.02-5.76-.31-1.34-.31-2.6,.98-3.34,1.68-.97,3.7-1.48,5.52-2.15l6.71-2.47c2.07-.76,4.13-1.59,6.22-2.28,1.35-.44,3.25-1.12,4.57-.25,1.43,.94,1.96,3.37,2.52,4.86l2.8,7.47,5.69,15.17c.47,1.26,1.69,2.13,3.08,1.75,1.21-.33,2.22-1.8,1.75-3.08h0Z"/></g><g><path class="d" d="M554.6,329.1c-6.92,.64-13.01,2.49-18.62,6.73,0,0-4.2,2.79-1.15,8.71,3.04,5.93,14.6,1.98,18.98,.55"/><path class="n" d="M554.6,326.6c-5.07,.48-9.98,1.57-14.58,3.81-1.89,.92-3.67,2.03-5.34,3.29-.91,.69-1.66,1.44-2.26,2.43-2.12,3.47-1.25,8.57,1.55,11.43,2.49,2.54,6.39,2.88,9.74,2.53,3.7-.39,7.24-1.44,10.77-2.58,1.28-.42,2.12-1.73,1.75-3.08-.35-1.26-1.79-2.17-3.08-1.75-2.56,.83-5.14,1.64-7.79,2.15-.39,.07-.77,.13-1.16,.2-.09,.01-.49,.06-.03,0-.19,.02-.39,.05-.58,.07-.79,.08-1.58,.12-2.38,.1-.33,0-.65-.03-.97-.06-.15-.01-.62-.1-.07,0-.14-.02-.27-.05-.41-.07-.33-.07-.65-.16-.97-.25-.02,0-.61-.23-.25-.08,.34,.14-.32-.17-.38-.2-.11-.06-.21-.14-.32-.2-.51-.25,.24,.23-.01,0-.21-.19-.4-.39-.59-.6,.4,.43-.17-.3-.25-.47-.23-.44-.39-.86-.53-1.34-.07-.22-.11-.45-.17-.68-.12-.49-.04-.23-.03-.1-.04-.39-.03-.77-.02-1.16,.01-.67-.08,.32,0-.06,.04-.16,.07-.32,.11-.47,.03-.12,.09-.24,.11-.35,.12-.51-.23,.35,.02-.04,.14-.21,.28-.45,.4-.67,.22-.43-.32,.31-.1,.12,.07-.07,.13-.16,.2-.24,.12-.12,.24-.24,.36-.37,.36-.36,.07-.02-.2,.13,.51-.29,.97-.72,1.46-1.05,.9-.61,1.83-1.18,2.79-1.7,4.04-2.18,8.65-3.28,13.2-3.71,1.34-.13,2.5-1.06,2.5-2.5,0-1.25-1.15-2.63-2.5-2.5h0Z"/></g><path class="n" d="M510.88,284.97l-.39,7.83c-.06,1.31,1.2,2.56,2.5,2.5,1.41-.06,2.43-1.1,2.5-2.5l.39-7.83c.06-1.31-1.2-2.56-2.5-2.5-1.41,.06-2.43,1.1-2.5,2.5h0Z"/><path class="n" d="M532.44,283.42l-3.74,7.89c-.29,.62-.44,1.25-.25,1.93,.16,.58,.61,1.21,1.15,1.49,1.11,.59,2.82,.36,3.42-.9l3.74-7.89c.29-.62,.44-1.25,.25-1.93-.16-.58-.61-1.21-1.15-1.49-1.11-.59-2.82-.36-3.42,.9h0Z"/><path class="n" d="M548.54,296.98l-8.03,4.62c-1.13,.65-1.63,2.29-.9,3.42s2.21,1.6,3.42,.9l8.03-4.62c1.13-.65,1.63-2.29,.9-3.42s-2.21-1.6-3.42-.9h0Z"/><path class="n" d="M487.69,293.43l4.07,5.87c.38,.54,.84,.97,1.49,1.15,.6,.16,1.4,.09,1.93-.25s1-.86,1.15-1.49,.13-1.38-.25-1.93l-4.07-5.87c-.38-.54-.84-.97-1.49-1.15-.6-.16-1.4-.09-1.93,.25s-1,.86-1.15,1.49-.13,1.38,.25,1.93h0Z"/><path class="n" d="M478.43,312.34l6.74,2.36c.59,.21,1.4,.05,1.93-.25s1.01-.9,1.15-1.49c.32-1.4-.42-2.61-1.75-3.08l-6.74-2.36c-.59-.21-1.4-.05-1.93,.25s-1.01,.9-1.15,1.49c-.32,1.4,.42,2.61,1.75,3.08h0Z"/><g><path class="n" d="M516.59,324.53c-.39-.89-1.38-1.47-2.34-1.39-.96,.09-1.83,.85-2.05,1.79-.2,.89,.13,1.82,.61,2.59,1.61,2.59,5.04,3.9,7.97,3.03,2.93-.87,5.1-3.82,5.04-6.88-.02-1.18-.44-2.48-1.48-3.03-1.33-.71-2.98,.12-4.08,1.15-1.1,1.03-2.07,2.33-3.51,2.8"/><path class="n" d="M518.74,323.27c-.99-2.03-3.58-3.13-5.72-2.4-2.4,.81-3.7,3.17-3.27,5.63,.6,3.46,4.12,6.14,7.45,6.66,3.76,.59,7.25-.93,9.43-4.03,1.93-2.74,2.68-7.64-.22-10.04-1.97-1.63-4.64-1.45-6.68-.03-.85,.59-1.55,1.29-2.28,2.02-.29,.3-.6,.57-.91,.85,.42-.38-.06,.03-.15,.09-.11,.07-.23,.14-.35,.2,.29-.11,.3-.11,.03-.02-1.23,.44-2.18,1.72-1.75,3.08,.39,1.21,1.76,2.22,3.08,1.75,1.41-.5,2.53-1.35,3.58-2.41,.39-.39,.78-.79,1.19-1.17,.08-.08,.37-.25,0,0,.12-.08,.23-.16,.36-.24s.25-.14,.37-.21c.39-.22-.18,0,.08-.03,.09-.01,.5-.16,.16-.07s.07,.02,.16,0c.34-.05-.42-.1-.09,0s-.35-.19-.05-.02-.3-.31-.07-.06-.21-.39-.05-.09c.06,.11,.12,.22,.18,.32,.15,.23-.11-.43-.01,.01,.03,.12,.06,.25,.09,.37,.14,.52-.05-.09,0-.1,0,0,.02,.71,.02,.76,0,.07,0,.3-.03,.39,.17-.39,.05-.29,0-.09-.07,.32-.14,.63-.25,.94-.04,.12-.09,.24-.14,.36,.03-.09,.23-.46,.01-.07-.13,.23-.24,.46-.38,.68-.07,.11-.15,.21-.22,.32,.05-.07,.33-.39,.03-.04-.19,.22-.39,.44-.6,.64-.16,.15-.56,.44-.16,.17-.21,.15-.42,.3-.65,.42-.16,.09-.79,.37-.27,.17-.3,.11-.61,.21-.92,.29-.05,.01-.37,.07-.37,.07,0-.03,.63-.04,.1-.02-.25,.01-.5,.03-.76,.02-.13,0-.25-.01-.38-.02-.2-.01-.34,.08,.1,.02-.24,.03-.61-.12-.84-.19-.12-.03-.24-.07-.36-.11-.08-.03-.47-.15-.15-.04s-.06-.03-.14-.07c-.11-.06-.23-.11-.34-.17-.22-.12-.43-.27-.65-.4-.3-.17,.31,.28,.05,.05-.12-.1-.24-.2-.36-.31-.23-.22-.44-.45-.64-.7,.06,.07,.28,.42,.05,.05-.09-.15-.19-.3-.27-.46-.03-.06-.2-.5-.11-.22s-.06-.3-.08-.35c.1,.48,.05,.08,.03,0-.04,.25-.05,.29,0,.13,.05-.18,.03-.13-.07,.15,.13-.19,.21-.17-.06,.03,.37-.28-.27,.09,.01-.04,.32-.15-.42,.08-.08,0,.31-.06,.31-.09,0-.02,.37-.09,.07,0-.09-.01,.22,.07,.25,.08,.06,0-.18-.08-.16-.06,.04,.05,.03,0-.53-.32-.06-.02l-.15-.21c.07,.11,.13,.22,.19,.34,.58,1.18,2.34,1.59,3.42,.9,1.21-.78,1.51-2.16,.9-3.42h0Z"/></g><path class="n" d="M519.27,323.66l-.18-6.66c-.02-.65-.27-1.3-.73-1.77-.43-.43-1.15-.76-1.77-.73-1.32,.06-2.54,1.1-2.5,2.5l.18,6.66c.02,.65,.27,1.3,.73,1.77,.43,.43,1.15,.76,1.77,.73,1.32-.06,2.54-1.1,2.5-2.5h0Z"/></g><path class="n" d="M622.08,230.05c3.22,0,3.22-5,0-5s-3.22,5,0,5h0Z"/><path class="n" d="M677.47,222.07c3.22,0,3.22-5,0-5s-3.22,5,0,5h0Z"/><path class="n" d="M645.22,233.44l11.41-1.82c1.3-.21,2.13-1.89,1.75-3.08-.46-1.41-1.69-1.97-3.08-1.75l-11.41,1.82c-1.3,.21-2.13,1.89-1.75,3.08,.46,1.41,1.69,1.97,3.08,1.75h0Z"/><g><path class="n" d="M677.59,232.63l-5.55,6.71c-.43,.52-.73,1.06-.73,1.77,0,.61,.27,1.35,.73,1.77s1.1,.76,1.77,.73c.63-.03,1.35-.23,1.77-.73l5.55-6.71c.43-.52,.73-1.06,.73-1.77,0-.61-.27-1.35-.73-1.77s-1.1-.76-1.77-.73c-.63,.03-1.35,.23-1.77,.73h0Z"/><path class="n" d="M687.41,231.86l-4.95,6.02c-.43,.53-.73,1.06-.73,1.77,0,.61,.27,1.35,.73,1.77s1.1,.76,1.77,.73c.62-.03,1.35-.23,1.77-.73l4.95-6.02c.43-.53,.73-1.06,.73-1.77,0-.61-.27-1.35-.73-1.77s-1.1-.76-1.77-.73c-.62,.03-1.35,.23-1.77,.73h0Z"/><path class="n" d="M697.59,230.37l-5.36,6.47c-.43,.52-.73,1.06-.73,1.77,0,.61,.27,1.35,.73,1.77s1.1,.76,1.77,.73c.63-.03,1.35-.23,1.77-.73l5.36-6.47c.43-.52,.73-1.06,.73-1.77,0-.61-.27-1.35-.73-1.77s-1.1-.76-1.77-.73c-.63,.03-1.35,.23-1.77,.73h0Z"/></g><g><path class="n" d="M624.58,248.42l5.2-6.99c.36-.49,.41-1.37,.25-1.93s-.61-1.21-1.15-1.49c-.58-.31-1.28-.46-1.93-.25s-1.08,.6-1.49,1.15l-5.2,6.99c-.36,.49-.41,1.37-.25,1.93s.61,1.21,1.15,1.49c.58,.31,1.28,.46,1.93,.25s1.08-.6,1.49-1.15h0Z"/><path class="n" d="M614.81,249.7l4.63-6.27c.36-.49,.41-1.37,.25-1.93s-.61-1.21-1.15-1.49c-.58-.31-1.28-.46-1.93-.25l-.6,.25c-.38,.22-.67,.52-.9,.9l-4.63,6.27c-.36,.49-.41,1.37-.25,1.93s.61,1.21,1.15,1.49c.58,.31,1.28,.46,1.93,.25l.6-.25c.38-.22,.67-.52,.9-.9h0Z"/><path class="n" d="M604.72,251.72l5.02-6.74c.36-.49,.41-1.37,.25-1.93s-.61-1.21-1.15-1.49c-.58-.31-1.28-.46-1.93-.25s-1.08,.6-1.49,1.15l-5.02,6.74c-.36,.49-.41,1.37-.25,1.93s.61,1.21,1.15,1.49c.58,.31,1.28,.46,1.93,.25s1.08-.6,1.49-1.15h0Z"/></g><path class="n" d="M544.2,204.41c-.06-3.34,.8-6.34,2.62-9.25s4.13-4.9,7.27-6.35c1.23-.57,1.53-2.34,.9-3.42-.74-1.26-2.19-1.46-3.42-.9-7.54,3.47-12.53,11.65-12.37,19.92,.03,1.35,1.13,2.5,2.5,2.5s2.53-1.14,2.5-2.5h0Z"/></g><g><path class="d" d="M725.38,321.79c-2.97,6.38-4.68,13.08-3.81,20.05,0,0,.32,5.03,6.97,5.36,6.66,.33,8.22-12.22,9.28-16.28"/><path class="n" d="M723.22,320.53c-2.48,5.37-4.25,11.07-4.37,17.03-.06,2.77-.02,5.91,1.66,8.25,2.23,3.11,6.95,4.79,10.62,3.5s5.33-4.69,6.56-7.95,1.7-6.51,2.54-9.78-4.02-4.45-4.82-1.33c-.61,2.39-1.02,4.83-1.7,7.21-.2,.69-.41,1.38-.65,2.06-.31,.86-.42,1.16-.77,1.85-.3,.6-.63,1.17-1,1.72-.04,.06-.28,.38-.03,.06-.09,.12-.19,.24-.3,.35-.2,.22-.41,.43-.63,.63-.36,.32-.09,.07,0,0-.12,.08-.24,.16-.36,.23s-.25,.14-.37,.2c.43-.21,.13-.05,.01-.02-.16,.04-.92,.17-.39,.12-.47,.04-.97,.02-1.43-.05-1.44-.21-2.2-.68-2.97-1.4-.42-.39,.05,.2-.21-.26-.1-.17-.2-.35-.31-.52-.34-.57,.03,.24-.05-.1-.05-.19-.11-.39-.17-.58-.03-.11-.03-.24-.07-.35-.13-.31,.17,.74,.06,.43-.31-.82-.2-2.09-.22-2.96-.14-5.51,1.39-10.88,3.69-15.85,.57-1.23,.35-2.69-.9-3.42-1.08-.63-2.85-.33-3.42,.9h0Z"/></g><g><path class="n" d="M829.82,379.45c2.1,2.67,7.12,2.32,10.38,1.37,3.26-.95,5.8-3.99,6.15-7.37,2.98,.08,5.85-2.16,6.5-5.07,.64-2.91-1.02-6.16-3.75-7.34,2.98,.29,5.45-3.07,4.88-6s-3.42-5.05-6.38-5.49-5.96,.5-8.65,1.82c.93-2.82-.7-6.24-3.49-7.28s-7.21,.66-8.36,3.41l-3.85,17.16,6.57,14.79Z"/><path class="n" d="M828.49,380.78c2.71,3.2,7.79,2.94,11.48,2.04,4.53-1.1,7.68-4.79,8.25-9.37l-1.88,1.88c3.84-.01,7.58-2.75,8.34-6.61s-1.2-7.68-4.65-9.29l-.95,3.49c2.68,.14,5.06-1.62,6.15-4.01,1.14-2.5,.75-5.28-.9-7.46-4.02-5.28-11.06-4.25-16.33-1.7l2.75,2.12c.93-3.16-.29-6.64-2.93-8.59s-5.95-1.61-8.69-.26c-1.82,.89-3.45,2.45-3.95,4.45-.37,1.47-.67,2.97-1,4.45l-2.55,11.36c-.22,.98-.25,1.76,.17,2.71,.64,1.45,1.29,2.89,1.93,4.34l4.47,10.06c.41,.93,1.76,1.13,2.57,.67,.96-.55,1.08-1.65,.67-2.57l-6.57-14.79,.19,1.44,2.28-10.15,1.32-5.89c.08-.36,.13-.75,.25-1.1-.13,.39,.12-.17,.22-.31,.17-.23,.38-.43,.59-.61,.51-.44,1.13-.78,1.75-1.02,1.44-.54,3.09-.66,4.34,.36s1.8,2.85,1.33,4.44c-.49,1.67,1.35,2.8,2.75,2.12,3.29-1.59,7.84-2.8,10.85,.04,1.05,1,1.72,2.36,1.3,3.81-.4,1.35-1.49,2.4-2.95,2.33-1.8-.09-2.64,2.7-.95,3.49,1.94,.91,3.27,2.94,2.91,5.13s-2.54,3.77-4.71,3.78c-1.11,0-1.75,.86-1.88,1.88-.39,3.09-2.92,5.18-5.8,5.83-2.35,.53-5.79,.91-7.53-1.15-1.56-1.84-4.2,.82-2.65,2.65Z"/></g><g><path class="n" d="M589.37,356.42c-2.01-.44-4.05-.89-5.86-1.88s-3.37-2.62-3.79-4.63,.59-4.37,2.53-5.06c1.27-.45,2.7-.14,3.88,.51s2.14,1.62,3.09,2.57c.56-1.31,1.15-2.65,2.08-3.73,.93-1.08,2.29-1.89,3.72-1.83s2.83,1.21,2.86,2.64c.03,1.14-.28,2.46-.84,3.45-2.01,3.6-5,5.65-7.68,7.95"/><path class="n" d="M590.7,351.6c-1.06-.23-2.12-.46-3.16-.78-.31-.1-.62-.2-.92-.31-.64-.21,.1,0,.29,.14-.39-.29-.92-.44-1.34-.7-.39-.24-.79-.75,.13,.15-.13-.13-.28-.23-.41-.35-.2-.18-.38-.38-.57-.58-.52-.54,.28,.38,.28,.38-.07,0-.38-.62-.42-.68-.39-.65,.22,.47,.18,.47-.11,0-.14-.75-.22-.77,.17,.05,.02,1.45,.09,.5,0-.11-.05-.54,.02-.6-.07,.06-.21,1.42-.02,.51,.11-.53,.45-.42-.21,.41,.1-.13,.23-.36,.29-.51,.16-.41-.83,.95-.28,.37s-.88,.57-.39,.27c.61-.37,.07,.21-.46,.14,.13,.02,1.14-.24,.17-.09s.1-.02,.19,.08c-.11-.11-1.28-.26-.34,.02s-.19,.05-.25-.13c.04,.11,.55,.31,.65,.37,.83,.53-.13,.06-.14-.15,0,.11,.51,.43,.59,.51,.42,.38,.82,.79,1.23,1.19,1.13,1.13,2.64,1.58,4.2,1.38,1.39-.19,3.05-1,3.65-2.39,.42-.98,.85-1.97,1.44-2.87,.47-.72,.15,0-.14,.16,.08-.04,.57-.54,.61-.61-.15,.28-.93,.63-.2,.19s-.13-.11-.29,.08c.1-.12,1.14-.23,.16-.09-.48,.05-.51,.07-.1,.06l-.83-.11c.89,.16-1.05-.56-.25-.13,.72,.39-.74-.63-.32-.24s-.65-1.02-.28-.31l-.34-.73c-.08-.89-.12-1.12-.11-.69-.09,.82,.12,.08,.1-.29,.01,.25-.13,.66-.2,.9-.05,.18-.29,1.07-.06,.25,.22-.77-.04,0-.16,.2-.26,.44-.55,.86-.84,1.28-.59,.88,.75-.86,.06-.08-.16,.18-.31,.37-.47,.55-.32,.35-.65,.7-.99,1.03-1.42,1.39-2.99,2.59-4.5,3.87-2,1.7-1.88,5.34,0,7.07,2.13,1.95,4.94,1.82,7.07,0,4.58-3.9,10.38-8.46,9.96-15.19-.32-5.15-5.46-8.33-10.29-7.09-3.84,.99-6.18,4.29-7.67,7.73l7.85-1.01c-2.6-2.62-5.77-4.99-9.67-4.74-4.37,.28-7.74,3.63-8.31,7.92-.48,3.56,.98,7.19,3.75,9.51s6.03,3.39,9.51,4.16c2.55,.56,5.53-.76,6.15-3.49,.58-2.53-.76-5.55-3.49-6.15h0Z"/></g></g><path class="n" d="M797.14,174.79c.07-.2,.46-1.06,.09-.29,.12-.25,.22-.5,.35-.74,.23-.44,.48-.88,.75-1.29,.15-.23,.31-.45,.47-.67,.3-.41-.38,.47-.06,.07,.09-.11,.17-.21,.26-.32,.34-.4,.7-.78,1.08-1.14,.18-.17,.37-.34,.56-.5,.1-.09,.21-.17,.31-.26,.39-.32-.49,.35-.08,.06s.85-.6,1.3-.86,.92-.5,1.39-.71-.57,.22-.1,.04c.13-.05,.25-.1,.38-.14,.26-.09,.52-.17,.78-.25,1.25-.37,2.17-1.77,1.75-3.08s-1.73-2.14-3.08-1.75c-5.13,1.51-9.2,5.48-10.98,10.49-.44,1.23,.49,2.79,1.75,3.08,1.4,.32,2.61-.42,3.08-1.75h0Z"/></g><g><g><path class="d" d="M300.29,316.59c5.05,8.29,2.76,14.75-.91,21.18s-9.66,11.21-15.93,15.12c-19.13,11.93-42.36,17.15-64.76,14.55-16.29-4.41-18.53-21.89-12.41-34.16-1.83-27.43,26.18-64.42,53.6-81.21,2.3-3.46,4.66-6.98,7.9-9.58s7.57-4.19,11.6-3.18c6.17,1.54,9.67,6.15,11.46,14.22,7.32,12.7,10.21,42.65,9.45,63.07Z"/><path class="n" d="M298.13,317.85c1.61,2.7,2.69,5.61,2.57,8.78-.1,2.66-1.05,5.23-2.24,7.58-2.84,5.64-7.04,10.1-12.15,13.77-10.94,7.85-23.82,13.07-37,15.71-6.68,1.34-13.49,1.96-20.31,1.89-1.58-.02-3.16-.07-4.73-.16-1.69-.1-3.55-.08-5.2-.46-2.26-.52-4.5-1.7-6.36-3.07-7.02-5.14-8.29-14.85-5.99-22.87,.32-1.11,.69-2.21,1.14-3.26,0,0,.34-.73,.45-.97,.44-.96,.44-1.69,.41-2.7-.08-2.31,.05-4.83,.33-6.98,.69-5.19,2.23-10.27,4.17-15.11,4.36-10.9,11.04-20.97,18.58-29.91,7.66-9.09,16.46-17.39,26.38-23.98,1.09-.72,2.53-1.35,3.46-2.27,.63-.63,1.09-1.56,1.59-2.3,.57-.83,1.14-1.66,1.74-2.47,1.85-2.46,4.02-4.75,6.76-6.21,2.58-1.38,5.38-1.73,8.15-.8,1.96,.65,3.64,1.83,5,3.56s2.42,4.33,3.06,6.66c.35,1.27,.7,2.4,1.31,3.58,.24,.45,.46,.91,.67,1.38s.41,.9,.5,1.13c1.94,4.74,3.18,9.77,4.17,14.79,2.29,11.64,3.21,23.59,3.3,35.44,.02,2.67-.02,5.34-.11,8.01-.12,3.22,4.88,3.21,5,0,.55-15.31-.5-30.97-3.61-45.99-.68-3.29-1.49-6.55-2.53-9.75-.46-1.42-.98-2.83-1.55-4.21s-1.31-2.63-1.87-3.97c-.62-1.49-.91-3.39-1.56-4.99s-1.43-3.21-2.49-4.63c-2.01-2.71-4.62-4.67-7.81-5.77-4.58-1.58-9.56-.54-13.54,2.09-4.32,2.86-7.28,7.19-10.1,11.43l.9-.9c-11.88,7.3-22.36,16.97-31.22,27.69-8.79,10.63-16.41,22.61-20.71,35.8-2.08,6.37-3.32,13.16-2.9,19.88l.34-1.26c-3.66,7.42-4.81,16.52-1.64,24.33,1.66,4.08,4.33,7.51,7.94,10.05,1.91,1.34,4.06,2.34,6.27,3.07,2.77,.92,5.96,.91,8.86,1.04,12.11,.55,24.37-1.1,35.92-4.77,11.33-3.6,22.7-9.06,31.76-16.86,4.82-4.15,8.55-9.29,10.92-15.2,2.49-6.22,1.7-12.62-1.71-18.33-1.65-2.76-5.97-.25-4.32,2.52Z"/></g><path class="n" d="M287.01,353.61c2.33-.48,6.27-1.47,8.09,.78s-1.15,3.41-3.04,3.46c-3.14,.09-6.35-.32-9.48-.56s-6.49-.51-9.75-.69-3.2,4.82,0,5c4.12,.23,8.23,.59,12.35,.89s8.9,1.22,12.44-1.19,3.97-7.67,.74-10.72c-3.49-3.28-8.38-2.67-12.67-1.79-1.32,.27-2.09,1.83-1.75,3.08,.38,1.37,1.75,2.02,3.08,1.75h0Z"/><path class="n" d="M263.98,288.63c3.22,0,3.22-5,0-5s-3.22,5,0,5h0Z"/><path class="n" d="M278.49,284.89c3.22,0,3.22-5,0-5s-3.22,5,0,5h0Z"/><path class="n" d="M301.88,304l5.22-5.23c.45-.45,.73-1.13,.73-1.77s-.27-1.35-.73-1.77-1.1-.76-1.77-.73-1.29,.25-1.77,.73l-5.22,5.23c-.45,.45-.73,1.13-.73,1.77s.27,1.35,.73,1.77,1.1,.76,1.77,.73,1.29-.25,1.77-.73h0Z"/><g><path class="n" d="M270.43,359.76c1.98,1.06,2.29,2.11,3.7,3.85,1.41,1.75,1.72,5.7,.6,7.65-1.24,2.16-5.23,2.94-7.63,2.24-2.4-.69-4.35-2.39-6.22-4.05,.22,3.9-3.05,7.68-6.95,8.01s-7.77-2.81-8.22-6.7c-1.91,2.13-3.89,4.32-6.48,5.56s-5.96,1.28-8.07-.66c-2.11-1.94-1.96-6.06,.66-7.23"/><path class="n" d="M269.48,361.38c.86,.49,1.46,1.07,2.04,1.86,.54,.74,1.24,1.47,1.58,2.33,.53,1.34,.86,3.79-.16,5s-3.28,1.48-4.73,1.28c-2.34-.33-4.31-2.21-6-3.71-1.16-1.02-3.25-.39-3.2,1.33,.09,2.95-2.19,5.9-5.24,6.15s-5.81-2.33-6.24-5.33c-.2-1.39-2.26-1.8-3.13-.83-2.45,2.73-5.6,6.43-9.72,5.84-1.36-.19-2.61-.93-2.97-2.31-.3-1.15-.03-2.36,1.08-2.91,2.16-1.08,.26-4.31-1.89-3.24s-3.22,3.49-3.02,5.8c.22,2.66,1.8,4.8,4.27,5.81,5.98,2.46,11.21-2.21,14.91-6.34l-3.13-.83c.68,4.72,5.43,8.53,10.2,8.05s8.8-4.95,8.65-9.87l-3.2,1.33c2.49,2.2,5.21,4.49,8.66,4.81,2.68,.24,5.95-.57,7.68-2.75s1.7-5.56,.88-8.07c-.45-1.38-1.27-2.41-2.12-3.56-.93-1.28-1.9-2.29-3.29-3.07-2.1-1.19-3.99,2.05-1.89,3.24h0Z"/></g><path class="n" d="M224.33,366.86c-1.98,1.82-4.24,3.32-6.7,4.42-1.11,.5-2.36,.91-3.58,1.23-1.11,.29-2.36,.63-3.49,.31-.2-.07-.22-.07-.05,0-.12-.06-.24-.12-.35-.19-.1-.06-.16-.13-.42-.37,.24,.22-.2-.37-.06-.04-.04-.08-.12-.63-.12-.45,0-.35,.13-.67,.4-1.02,.07-.09,.93-.81,.39-.41,1.42-1.07,2.96-2.09,4.54-2.91,1.2-.62,1.55-2.3,.9-3.42-.71-1.22-2.22-1.52-3.42-.9-3.71,1.92-8.7,4.99-7.66,9.89,.67,3.14,3.83,4.96,6.87,4.91s5.82-1.1,8.43-2.27c2.89-1.29,5.53-3.13,7.86-5.27,.99-.91,.93-2.61,0-3.54-.99-.99-2.54-.92-3.54,0h0Z"/><path class="n" d="M299.58,313.69l-7.61,1.12c-.58,.09-1.21,.67-1.49,1.15-.31,.54-.45,1.33-.25,1.93s.57,1.19,1.15,1.49c.63,.34,1.22,.36,1.93,.25l7.61-1.12c.58-.09,1.21-.67,1.49-1.15,.31-.54,.45-1.33,.25-1.93s-.57-1.19-1.15-1.49c-.63-.34-1.22-.36-1.93-.25h0Z"/><path class="n" d="M260.86,254.21l5.97,1.22c.66,.14,1.33,.1,1.93-.25,.52-.3,1.01-.9,1.15-1.49,.15-.64,.11-1.36-.25-1.93-.34-.53-.86-1.02-1.49-1.15l-5.97-1.22c-.66-.14-1.33-.1-1.93,.25-.52,.3-1.01,.9-1.15,1.49-.15,.64-.11,1.36,.25,1.93,.34,.53,.86,1.02,1.49,1.15h0Z"/><path class="n" d="M277.9,240.94c2.08-2.17,3.34-5.19,3.18-8.22s-1.46-5.84-3.7-7.8c-.98-.86-2.58-1.04-3.54,0-.87,.95-1.05,2.61,0,3.54,.33,.29,.89,.71,1.08,1.12-.07-.16-.2-.28-.04-.04,.07,.11,.15,.21,.21,.32,.14,.22,.27,.45,.38,.68,.03,.06,.19,.29,.17,.35,.02-.09-.15-.41-.03-.06,.09,.24,.17,.49,.24,.74s.12,.5,.18,.76c.07,.31,.05,.08,0-.09,.05,.14,.03,.34,.04,.48,.01,.27,.02,.53,0,.8,0,.13-.02,.27-.03,.4,0,.36,.09-.42,.01-.07-.11,.53-.22,1.04-.4,1.55-.02,.05-.19,.46-.06,.17s-.06,.11-.08,.16c-.12,.24-.25,.47-.39,.7-.07,.11-.14,.23-.22,.34-.03,.05-.29,.4-.1,.15s-.08,.09-.12,.13c-.11,.13-.22,.25-.34,.37-.91,.94-1.01,2.61,0,3.54s2.57,1.01,3.54,0h0Z"/><g><g><path class="d" d="M305.39,288.32c.12,5.81,.7,11.62,1.73,17.35,.14,.76,.31,1.56,.88,2.1,.74,.69,1.89,.73,2.93,.71,3.58-.08,7.15-.43,10.67-1.05,.83-.15,1.8-.41,2.09-1.16,.13-.35,.09-.73,.05-1.09l-.69-5.63-1.51-12.32c-.06-.52-.16-1.09-.59-1.42-.29-.22-.69-.28-1.06-.33-4.76-.58-9.99,1.28-14.49,2.85"/><path class="n" d="M302.89,288.32c.13,5.74,.7,11.47,1.66,17.13,.2,1.17,.39,2.33,1.07,3.34,.9,1.34,2.34,1.96,3.9,2.13,2.64,.29,5.47-.1,8.1-.41,2.39-.28,5.79-.26,7.6-2.11,1.14-1.17,1.09-2.6,.91-4.1l-.5-4.11-1.03-8.4c-.18-1.44-.35-2.89-.53-4.33s-.48-2.93-1.86-3.81-3.17-.81-4.67-.77-2.86,.24-4.26,.51c-2.93,.56-5.74,1.56-8.55,2.54-1.27,.45-2.12,1.71-1.75,3.08,.34,1.24,1.8,2.19,3.08,1.75,3.75-1.31,7.65-2.8,11.68-2.87,.46,0,.92,0,1.37,.03-.48-.03,.47,.05,.49,.04-.35,.27-.43-1.42-.51-.37-.08,.95,.26,2.12,.37,3.07l.87,7.07,.81,6.59c.03,.25,.02,.65,.11,.87,.13,.33-.19,.67,.33-.02s.17-.31-.32-.2c-1.05,.24-2.13,.37-3.19,.5-2.29,.29-4.6,.46-6.91,.52-.43,.01-.85,.01-1.28-.01-.71-.04-.19-.18-.11,.04-.3-.78-.36-1.71-.5-2.54-.82-5.01-1.25-10.07-1.37-15.14-.08-3.21-5.08-3.22-5,0h0Z"/></g><path class="n" d="M325,288.35l-1.27-11.68c-.14-1.3-1.05-2.56-2.5-2.5-1.23,.06-2.65,1.11-2.5,2.5l1.27,11.68c.14,1.3,1.05,2.56,2.5,2.5,1.23-.06,2.65-1.11,2.5-2.5h0Z"/><path class="n" d="M311.42,300.17c3.22,0,3.22-5,0-5s-3.22,5,0,5h0Z"/><path class="n" d="M310.71,294.87c3.22,0,3.22-5,0-5s-3.22,5,0,5h0Z"/><path class="n" d="M316.26,293.57c3.22,0,3.22-5,0-5s-3.22,5,0,5h0Z"/><path class="n" d="M316.97,299.06c3.22,0,3.22-5,0-5s-3.22,5,0,5h0Z"/><path class="n" d="M312.29,305.11c3.22,0,3.22-5,0-5s-3.22,5,0,5h0Z"/><path class="n" d="M317.84,304.42c3.22,0,3.22-5,0-5s-3.22,5,0,5h0Z"/><path class="n" d="M324.75,271.75l2.25-4.26c.31-.59,.43-1.27,.25-1.93-.16-.58-.61-1.21-1.15-1.49-.58-.31-1.28-.46-1.93-.25-.6,.2-1.19,.57-1.49,1.15l-2.25,4.26c-.31,.59-.43,1.27-.25,1.93,.16,.58,.61,1.21,1.15,1.49,.58,.31,1.28,.46,1.93,.25,.6-.2,1.19-.57,1.49-1.15h0Z"/><path class="n" d="M326.41,277.44l5.54,1.01c.67,.12,1.32,.1,1.93-.25,.52-.3,1.01-.9,1.15-1.49,.15-.64,.11-1.36-.25-1.93-.34-.52-.86-1.03-1.49-1.15l-5.54-1.01c-.67-.12-1.32-.1-1.93,.25-.52,.3-1.01,.9-1.15,1.49-.15,.64-.11,1.36,.25,1.93,.34,.52,.86,1.03,1.49,1.15h0Z"/><path class="n" d="M318.35,269.65l-4.47-4.02c-.49-.44-1.09-.73-1.77-.73-.61,0-1.35,.27-1.77,.73s-.76,1.1-.73,1.77,.24,1.32,.73,1.77l4.47,4.02c.49,.44,1.09,.73,1.77,.73,.61,0,1.35-.27,1.77-.73s.76-1.1,.73-1.77-.24-1.32-.73-1.77h0Z"/><path class="n" d="M313.16,275.88l-3.51,2.72c-.24,.23-.42,.49-.52,.8-.16,.3-.23,.62-.22,.96-.01,.34,.06,.67,.22,.96,.1,.31,.27,.58,.52,.8,.48,.44,1.1,.76,1.77,.73l.66-.09c.42-.12,.79-.33,1.1-.64l3.51-2.72c.24-.23,.42-.49,.52-.8,.16-.3,.23-.62,.22-.96,.01-.34-.06-.67-.22-.96-.1-.31-.27-.58-.52-.8-.48-.44-1.1-.76-1.77-.73l-.66,.09c-.42,.12-.79,.33-1.1,.64h0Z"/></g><path class="n" d="M259.88,254.56c3.22,0,3.22-5,0-5s-3.22,5,0,5h0Z"/><path class="n" d="M207.73,334.82l5.5-.86c.58-.09,1.21-.67,1.49-1.15,.31-.54,.45-1.33,.25-1.93s-.57-1.19-1.15-1.49l-.6-.25c-.44-.12-.89-.12-1.33,0l-5.5,.86c-.58,.09-1.21,.67-1.49,1.15-.31,.54-.45,1.33-.25,1.93s.57,1.19,1.15,1.49l.6,.25c.44,.12,.89,.12,1.33,0h0Z"/><path class="n" d="M220.22,305c-6.51-3.78-15.18-3.5-21.33,.93-1.09,.79-1.62,2.18-.9,3.42,.63,1.08,2.32,1.69,3.42,.9,2.43-1.75,5.22-2.73,8-2.87,3.02-.15,5.7,.45,8.28,1.94,2.79,1.62,5.31-2.7,2.52-4.32h0Z"/><path class="n" d="M247.48,327.04c-.35,.15,.51-.2,.59-.23,.28-.11,.57-.22,.85-.32,.63-.22,1.26-.43,1.89-.62,1.24-.37,2.49-.68,3.76-.92,1.39-.27,2.29-.39,3.67-.51,1.53-.13,3.07-.16,4.61-.13,1.31,.03,2.56-1.17,2.5-2.5s-1.1-2.47-2.5-2.5c-6.17-.14-12.22,1-17.89,3.42-1.24,.53-1.52,2.36-.9,3.42,.75,1.29,2.17,1.43,3.42,.9h0Z"/><path class="n" d="M262.19,294.71c4.19,.82,8.46,.82,12.64-.13,3.73-.85,7.58-2.74,9.3-6.37,.58-1.22,.34-2.7-.9-3.42-1.09-.64-2.84-.33-3.42,.9-.53,1.11-1.26,1.94-2.29,2.57-1.34,.82-2.85,1.25-4.38,1.58-3.15,.67-6.47,.68-9.63,.06-1.32-.26-2.7,.38-3.08,1.75-.34,1.23,.41,2.81,1.75,3.08h0Z"/><g><path class="n" d="M304.69,258.48c-1.41-1.49-2.85-3.02-3.78-4.85s-1.31-4.06-.52-5.96,2.95-3.29,4.94-2.76c1.3,.34,2.31,1.41,2.92,2.61s.86,2.54,1.11,3.87c1.2-.77,2.44-1.54,3.82-1.91s2.96-.28,4.1,.58,1.66,2.59,.89,3.79c-.62,.96-1.62,1.87-2.64,2.38-3.69,1.85-7.31,1.86-10.82,2.25"/><path class="n" d="M308.23,254.95c-.5-.52-.99-1.05-1.47-1.59-.24-.27-.46-.55-.7-.83-.23-.29-.13-.16,.31,.4-.12-.16-.24-.33-.36-.5-.17-.25-.34-.51-.49-.78-.1-.18-.2-.36-.29-.54-.23-.48-.18-.35,.14,.39,0-.24-.22-.61-.29-.84-.11-.38-.18-.77-.24-1.16l.18,1.33c-.06-.59-.07-1.16,0-1.75l-.18,1.33c.04-.24,.08-.48,.14-.71,.23-.88-.19,.02-.17,.28,0-.16,.24-.41,.31-.54,.21-.41-.86,.9-.24,.33,.12-.11,.26-.22,.36-.34-.69,.81-.75,.54-.31,.28,.81-.47-.39,.07-.42,.14,.05-.11,.61-.16,.7-.18l-1.33,.18c.33-.04,.63-.05,.96-.02l-1.33-.18c.22,.03,1.22,.37,.38,.02-1.1-.46,.73,.61-.19-.1-.74-.56,.18,.18,.27,.36l-.46-.58c.1,.15,.2,.3,.28,.46,.07,.12,.13,.25,.19,.38,.16,.34,.09,.18-.2-.48-.06,.09,.24,.72,.28,.89,.19,.7,.32,1.42,.46,2.13,.59,3.13,4.78,4.62,7.34,2.99,.69-.44,1.4-.84,2.11-1.25,.48-.23,.36-.19-.36,.13,.19-.08,.38-.14,.57-.2,.36-.11,.72-.19,1.09-.24l-1.33,.18c.45-.05,.89-.05,1.35-.01l-1.33-.18c.27,.04,.82,.06,1.03,.25l-.71-.29c.44,.27,.32,.16-.38-.35,.63,.63-.63-1.05-.17-.28,.24,.45,.17,.27-.2-.54,.05,.15,.09,.3,.12,.46l-.18-1.33c.04,.32,.05,.61,0,.93l.18-1.33c-.12,.49-.03,.31,.29-.54-.08,.15-.17,.3-.28,.44,.49-.61,.56-.72,.21-.32-.14,.15-.29,.29-.44,.43-.4,.34-.3,.27,.3-.21-.16,.11-.33,.22-.5,.32-.19,.1-.38,.2-.57,.29-.5,.23-.42,.2,.25-.09-.16,.22-1,.36-1.26,.44-.41,.13-.83,.24-1.25,.34-.82,.19-1.65,.33-2.48,.44l1.33-.18c-1.52,.19-3.05,.3-4.57,.47-1.36,.15-2.53,.46-3.54,1.46-.87,.87-1.52,2.29-1.46,3.54,.11,2.47,2.22,5.3,5,5,3.11-.34,6.3-.46,9.32-1.33,3.81-1.1,8.01-3.42,9.21-7.5,1.28-4.36-1.66-8.89-5.93-10.04-3.77-1.02-7.33,.46-10.46,2.46l7.34,2.99c-.67-3.59-2.08-7.07-5.35-9.04-3.54-2.14-8.22-1.26-11.02,1.68s-3.47,7.15-2.28,10.9c1.06,3.32,3.28,5.93,5.63,8.43,1.8,1.9,5.28,1.95,7.07,0s1.92-5.04,0-7.07h0Z"/></g><path class="n" d="M300.29,319.09c3.22,0,3.22-5,0-5s-3.22,5,0,5h0Z"/><path class="n" d="M279.38,241.8c3.22,0,3.22-5,0-5s-3.22,5,0,5h0Z"/><path class="n" d="M300.29,319.09c3.22,0,3.22-5,0-5s-3.22,5,0,5h0Z"/><path class="n" d="M279.38,241.8c3.22,0,3.22-5,0-5s-3.22,5,0,5h0Z"/></g></g><g><g><g><g><text class="e" transform="translate(374.65 74.96)"><tspan x="0" y="0">Bubbly Chat</tspan></text><text class="g" transform="translate(374.65 69.02)"><tspan x="0" y="0">Bubbly Chat</tspan></text></g><path class="m" d="M351.03,18.37c-.46-6.89-6.22-12.38-13.22-12.38h-72.1c-7.3,0-13.27,5.97-13.27,13.27v61.14c0,6.63,6.29,11.09,12.26,9.54,.09,2.61,.36,4.51,.87,6.13,1.28,4.07,4.35,6.49,8.2,6.49,1.79,0,3.66-.53,5.7-1.61,.78-.42,1.51-.96,2.18-1.61l15.97-15.68c1.54-1.51,3.58-2.35,5.74-2.35h43.01c10.9,0,19.77-8.87,19.77-19.77v-26.56c0-8.67-6.65-15.81-15.11-16.6Zm9.46,43.17c0,7.76-6.35,14.11-14.11,14.11h-43.01c-3.63,0-7.12,1.43-9.71,3.97l-15.97,15.68c-.26,.25-.55,.48-.87,.65-1.23,.65-2.23,.95-3.05,.95-2.89,0-3.45-3.76-3.45-9v-2.06l16.02-15.73c2.03-2,4.77-3.12,7.62-3.12h45.45c6.42,0,11.67-5.25,11.67-11.67V24.08c5.3,.79,9.41,5.38,9.41,10.89v26.56Z"/></g><g><g><path class="h" d="M440.7,96.77c-2.47-2.99-6.43-3.44-9.68-1.65-2.19,1.21-3.73,3.13-4.96,5.32-1.44-1.27-3.03-2.29-4.88-2.74-3.53-.86-9.08,.57-11.29,3.82-1.72,2.54-1.6,6.3-.78,9.31,.9,3.3,4.24,5.62,6.83,7.54,2.95,2.18,6.44,3.14,9.87,4,.07,.02,.14,.02,.21,.04,.82,.24,1.71,.09,2.48-.44,.12-.08,.23-.16,.34-.26,0,0,.02-.01,.02-.02,4.61-4.18,9.59-8.12,12.29-14.16,1.49-3.34,1.94-7.84-.47-10.75Z"/><path class="m" d="M440.7,91.04c-2.47-2.99-6.43-3.44-9.68-1.65-2.19,1.21-3.73,3.13-4.96,5.32-1.44-1.27-3.03-2.29-4.88-2.74-3.53-.86-9.08,.57-11.29,3.82-1.72,2.54-1.6,6.3-.78,9.31,.9,3.3,4.24,5.62,6.83,7.54,2.95,2.18,6.44,3.14,9.87,4,.07,.02,.14,.02,.21,.04,.82,.24,1.71,.09,2.48-.44,.12-.08,.23-.16,.34-.26,0,0,.02-.01,.02-.02,4.61-4.18,9.59-8.12,12.29-14.16,1.49-3.34,1.94-7.84-.47-10.75Z"/></g><text class="f" transform="translate(449.31 114.26)"><tspan x="0" y="0">lu</tspan><tspan class="j" x="23.94" y="0">v</tspan><tspan x="39.59" y="0">xt in </tspan><tspan class="k" x="100.86" y="0">r</tspan><tspan x="111" y="0">eal-time</tspan></text></g></g><rect class="l" y="3.8" width="1080" height="664.5"/></g></g></g></g></svg>