<?xml version="1.0" encoding="UTF-8"?><svg xmlns="http://www.w3.org/2000/svg" viewBox="0 0 1080 427.45"><defs><style>.d{fill:#fff;}.e,.f{font-family:DFVN-GLDDisplay-Black, DFVN GLD Display;font-size:106.14px;}.e,.g{fill:#000070;}.f,.h{fill:#40a4ff;}.i{letter-spacing:-.04em;}.j{letter-spacing:-.04em;}.k{letter-spacing:-.11em;}.l{fill:none;}.m{letter-spacing:-.04em;}</style></defs><g id="a"/><g id="b"><g id="c"><g><rect class="l" width="1080" height="427.45"/><g><g><g><text class="f" transform="translate(378.86 169.42)"><tspan class="k" x="0" y="0">V</tspan><tspan class="j" x="50.74" y="0" xml:space="preserve">O   </tspan><tspan class="m" x="187.42" y="0">d</tspan><tspan class="i" x="242.05" y="0">O</tspan></text><path class="h" d="M548.65,94.14c-7.47-1.38-15.94-1.4-22.84,1.2-9.13,3.44-16.65,10.13-22.15,18.56-8.08,12.39-5.97,28.35,1.85,40.14,3.64,5.48,8.56,8.84,14.78,9.18,3.53,.2,6.03,1.79,7.79,5.18,1.92,3.69,6.67,4.85,9.52,2.46,2.38-2,2.99-5.18,1.59-8.27-.45-.99-.99-1.93-1.24-2.99-.39-1.64,.25-3.23,1.57-3.91,1.38-.71,2.84-.3,4,1.11,.73,.89,1.08,1.97,1.58,2.97,1.35,2.74,3.68,4.23,6.33,4.01,2.49-.2,4.59-2.28,5.13-4.97,.43-2.16-.33-4.1-1.27-6.04-1.13-2.33-.71-3.73,1.31-4.74,2.03-1.02,3.41-.46,4.54,1.83,.36,.74,.68,1.5,1.07,2.22,1.56,2.87,5.12,4.26,7.9,3.25,3.66-1.34,4.76-5.92,3.32-8.98-1.53-3.26-1.17-6.22,.94-8.82,1.08-1.34,1.87-2.9,2.43-4.6,2.01-6.08,.88-12.05-1.16-16.47-6-12.59-15.79-20.23-27-22.31Zm-25.43,52.68c-4.8,2.08-10.39-.58-12.88-6.14-2.23-4.98-.15-10.98,4.52-13.03,4.92-2.16,10.54,.35,12.97,5.81,2.38,5.35,.36,11.19-4.62,13.36Zm23.01-4.7c-.71,.42-1.48,.71-2.23,1.06v-.02c-.75,.35-1.47,.77-2.25,1.04-2.55,.89-5.46-1.42-5.36-4.33,.06-1.64,.27-3.28,.61-4.86,.54-2.5,3.07-3.64,5.34-2.44,1.36,.72,2.67,1.57,3.91,2.51,2.44,1.83,2.4,5.58-.03,7.03Zm13.6-12.48c-4.8,2.27-10.49-.11-13.02-5.37-2.42-5.03-.82-10.72,2.75-12.69,5.84-3.23,11.6-1.24,14.34,4.57,2.5,5.3,.71,11.23-4.07,13.49Z"/></g><g><g><path class="h" d="M507.73,194.07c-1.21,0-2.23-.2-3.05-.59-.82-.4-1.42-.98-1.81-1.75-.39-.77-.58-1.75-.58-2.93v-4.98h-1.16c-.48,0-.85-.13-1.12-.38-.27-.25-.41-.62-.41-1.09s.14-.83,.41-1.08c.27-.25,.65-.37,1.12-.37h1.16v-2.03c0-.67,.17-1.17,.51-1.5s.83-.5,1.46-.5,1.15,.17,1.49,.5c.34,.33,.51,.83,.51,1.5v2.03h2.45c.51,0,.9,.12,1.16,.37,.26,.25,.4,.61,.4,1.08s-.13,.84-.4,1.09c-.26,.26-.65,.38-1.16,.38h-2.45v4.83c0,.74,.17,1.29,.5,1.65,.33,.36,.88,.54,1.64,.54,.26,0,.51-.03,.75-.08,.24-.05,.44-.08,.59-.08,.25-.02,.45,.06,.62,.22s.25,.53,.25,1.09c0,.44-.07,.82-.2,1.13s-.38,.54-.75,.66c-.23,.07-.55,.14-.95,.2-.4,.06-.74,.09-1,.09Z"/><path class="h" d="M518.25,194.07c-1.39,0-2.59-.27-3.61-.82-1.02-.54-1.82-1.32-2.39-2.33-.57-1.01-.86-2.21-.86-3.6,0-1.04,.16-1.97,.47-2.8,.32-.83,.78-1.53,1.38-2.12,.61-.59,1.34-1.04,2.19-1.34,.85-.31,1.79-.46,2.81-.46,1.39,0,2.6,.27,3.63,.82,1.03,.55,1.83,1.32,2.4,2.33,.57,1.01,.86,2.2,.86,3.57,0,1.04-.16,1.98-.49,2.82-.33,.84-.79,1.56-1.38,2.14-.6,.58-1.32,1.02-2.16,1.33-.84,.31-1.79,.46-2.85,.46Zm0-2.95c.58,0,1.08-.14,1.5-.41,.42-.27,.76-.69,1-1.25,.25-.56,.37-1.28,.37-2.14,0-1.28-.26-2.23-.79-2.83s-1.22-.91-2.08-.91c-.56,0-1.06,.13-1.49,.4-.43,.26-.77,.68-1,1.24-.24,.56-.36,1.27-.36,2.11,0,1.3,.26,2.26,.79,2.88,.53,.62,1.21,.92,2.06,.92Z"/><path class="h" d="M532.57,194.07c-1.13,0-2.11-.27-2.97-.8-.85-.54-1.52-1.31-1.99-2.33-.47-1.02-.71-2.22-.71-3.61s.24-2.58,.71-3.59,1.14-1.78,1.99-2.32c.85-.54,1.84-.82,2.97-.82,1.02,0,1.93,.25,2.72,.74,.79,.49,1.32,1.13,1.58,1.93h-.29v-6.25c0-.67,.17-1.17,.5-1.5,.33-.33,.83-.5,1.48-.5s1.12,.17,1.48,.5c.35,.33,.53,.84,.53,1.5v15.01c0,.65-.17,1.15-.51,1.49-.34,.34-.82,.51-1.44,.51-.65,0-1.15-.17-1.49-.51-.34-.34-.51-.84-.51-1.49v-1.79l.29,1.03c-.25,.86-.77,1.55-1.57,2.06-.8,.51-1.72,.76-2.76,.76Zm1.19-2.95c.58,0,1.08-.14,1.5-.41,.42-.27,.76-.69,1-1.25,.25-.56,.37-1.28,.37-2.14,0-1.28-.26-2.23-.79-2.83s-1.22-.91-2.08-.91c-.56,0-1.06,.13-1.49,.4-.43,.26-.77,.68-1,1.24-.24,.56-.36,1.27-.36,2.11,0,1.3,.26,2.26,.79,2.88,.53,.62,1.21,.92,2.06,.92Z"/><path class="h" d="M549.85,194.07c-1.39,0-2.59-.27-3.61-.82s-1.82-1.32-2.39-2.33c-.57-1.01-.86-2.21-.86-3.6,0-1.04,.16-1.97,.47-2.8,.32-.83,.78-1.53,1.38-2.12,.61-.59,1.34-1.04,2.19-1.34,.85-.31,1.79-.46,2.81-.46,1.39,0,2.6,.27,3.63,.82,1.03,.55,1.83,1.32,2.4,2.33,.57,1.01,.86,2.2,.86,3.57,0,1.04-.16,1.98-.49,2.82-.33,.84-.79,1.56-1.38,2.14-.6,.58-1.32,1.02-2.16,1.33-.84,.31-1.79,.46-2.85,.46Zm0-2.95c.58,0,1.08-.14,1.5-.41s.76-.69,1-1.25,.37-1.28,.37-2.14c0-1.28-.26-2.23-.79-2.83s-1.22-.91-2.08-.91c-.56,0-1.06,.13-1.49,.4s-.76,.68-1,1.24c-.24,.56-.36,1.27-.36,2.11,0,1.3,.26,2.26,.79,2.88s1.21,.92,2.06,.92Z"/><path class="h" d="M571.13,194.07c-1.57,0-2.73-.43-3.51-1.29-.77-.86-1.16-2.15-1.16-3.88v-11.9c0-.67,.18-1.17,.53-1.5,.35-.33,.83-.5,1.45-.5,.65,0,1.15,.17,1.49,.5,.34,.33,.51,.84,.51,1.5v11.74c0,.72,.15,1.25,.46,1.6,.31,.34,.72,.51,1.23,.51,.14,0,.28,0,.41-.03s.26-.04,.38-.05c.28-.02,.48,.08,.59,.28s.17,.61,.17,1.23c0,.51-.11,.91-.32,1.19-.21,.28-.54,.46-.98,.53-.16,.02-.35,.04-.58,.05s-.46,.03-.69,.03Z"/><path class="h" d="M577.22,178.51c-.72,0-1.28-.17-1.66-.53-.39-.35-.58-.85-.58-1.5s.19-1.12,.58-1.46c.39-.34,.94-.51,1.66-.51s1.31,.17,1.7,.51,.59,.83,.59,1.46-.2,1.15-.59,1.5c-.4,.35-.96,.53-1.7,.53Zm0,15.51c-.62,0-1.1-.19-1.45-.57-.35-.38-.53-.91-.53-1.6v-9.05c0-.7,.18-1.24,.53-1.6,.35-.36,.83-.54,1.45-.54,.65,0,1.15,.18,1.49,.54s.51,.89,.51,1.6v9.05c0,.69-.17,1.22-.5,1.6-.33,.38-.84,.57-1.5,.57Z"/><path class="h" d="M587.27,194.07c-.76,0-1.55-.07-2.37-.2-.83-.13-1.57-.37-2.21-.7-.37-.18-.63-.4-.78-.67s-.22-.55-.2-.84,.11-.54,.28-.76,.39-.37,.66-.45c.27-.08,.58-.05,.91,.09,.72,.3,1.38,.51,1.99,.63s1.19,.18,1.75,.18c.74,0,1.28-.12,1.63-.37,.35-.25,.53-.56,.53-.95,0-.33-.12-.58-.34-.75-.23-.17-.56-.29-1-.38l-2.8-.5c-1.07-.21-1.9-.62-2.49-1.21s-.88-1.37-.88-2.32c0-.9,.25-1.66,.74-2.29,.49-.63,1.17-1.12,2.04-1.46,.87-.34,1.86-.51,2.97-.51,.79,0,1.52,.07,2.18,.21s1.31,.38,1.94,.71c.32,.14,.54,.34,.67,.61,.13,.26,.17,.54,.12,.82s-.16,.53-.33,.75c-.17,.22-.39,.37-.66,.45-.27,.08-.59,.04-.96-.12-.56-.23-1.08-.4-1.56-.51-.48-.11-.92-.17-1.32-.17-.81,0-1.39,.12-1.75,.37s-.54,.56-.54,.95c0,.3,.11,.55,.32,.75,.21,.2,.53,.34,.95,.41l2.8,.47c1.12,.21,1.99,.6,2.58,1.17s.9,1.34,.9,2.31c0,1.37-.52,2.43-1.57,3.18-1.05,.75-2.44,1.12-4.18,1.12Z"/><path class="h" d="M601.64,194.07c-1.21,0-2.23-.2-3.05-.59-.82-.4-1.42-.98-1.81-1.75-.39-.77-.58-1.75-.58-2.93v-4.98h-1.16c-.47,0-.85-.13-1.12-.38-.27-.25-.41-.62-.41-1.09s.14-.83,.41-1.08c.27-.25,.65-.37,1.12-.37h1.16v-2.03c0-.67,.17-1.17,.51-1.5s.83-.5,1.46-.5,1.15,.17,1.49,.5,.51,.83,.51,1.5v2.03h2.45c.51,0,.9,.12,1.16,.37,.26,.25,.4,.61,.4,1.08s-.13,.84-.4,1.09c-.26,.26-.65,.38-1.16,.38h-2.45v4.83c0,.74,.17,1.29,.5,1.65,.33,.36,.88,.54,1.64,.54,.26,0,.51-.03,.75-.08s.44-.08,.59-.08c.25-.02,.45,.06,.62,.22,.17,.17,.25,.53,.25,1.09,0,.44-.07,.82-.2,1.13s-.38,.54-.75,.66c-.23,.07-.54,.14-.95,.2-.41,.06-.74,.09-1,.09Z"/></g><rect class="h" x="472.06" y="176.95" width="21.48" height="21.48" rx="6.1" ry="6.1"/></g></g><g><g><text class="e" transform="translate(378.86 163.58)"><tspan class="k" x="0" y="0">V</tspan><tspan class="j" x="50.74" y="0" xml:space="preserve">O   </tspan><tspan class="m" x="187.42" y="0">d</tspan><tspan class="i" x="242.05" y="0">O</tspan></text><path class="g" d="M548.65,88.3c-7.47-1.38-15.94-1.4-22.84,1.2-9.13,3.44-16.65,10.13-22.15,18.56-8.08,12.39-5.97,28.35,1.85,40.14,3.64,5.48,8.56,8.84,14.78,9.18,3.53,.2,6.03,1.79,7.79,5.18,1.92,3.69,6.67,4.85,9.52,2.46,2.38-2,2.99-5.18,1.59-8.27-.45-.99-.99-1.93-1.24-2.99-.39-1.64,.25-3.23,1.57-3.91,1.38-.71,2.84-.3,4,1.11,.73,.89,1.08,1.97,1.58,2.97,1.35,2.74,3.68,4.23,6.33,4.01,2.49-.2,4.59-2.28,5.13-4.97,.43-2.16-.33-4.1-1.27-6.04-1.13-2.33-.71-3.73,1.31-4.74,2.03-1.02,3.41-.46,4.54,1.83,.36,.74,.68,1.5,1.07,2.22,1.56,2.87,5.12,4.26,7.9,3.25,3.66-1.34,4.76-5.92,3.32-8.98-1.53-3.26-1.17-6.22,.94-8.82,1.08-1.34,1.87-2.9,2.43-4.6,2.01-6.08,.88-12.05-1.16-16.47-6-12.59-15.79-20.23-27-22.31Zm-25.43,52.68c-4.8,2.08-10.39-.58-12.88-6.14-2.23-4.98-.15-10.98,4.52-13.03,4.92-2.16,10.54,.35,12.97,5.81,2.38,5.35,.36,11.19-4.62,13.36Zm23.01-4.7c-.71,.42-1.48,.71-2.23,1.06v-.02c-.75,.35-1.47,.77-2.25,1.04-2.55,.89-5.46-1.42-5.36-4.33,.06-1.64,.27-3.28,.61-4.86,.54-2.5,3.07-3.64,5.34-2.44,1.36,.72,2.67,1.57,3.91,2.51,2.44,1.83,2.4,5.58-.03,7.03Zm13.6-12.48c-4.8,2.27-10.49-.11-13.02-5.37-2.42-5.03-.82-10.72,2.75-12.69,5.84-3.23,11.6-1.24,14.34,4.57,2.5,5.3,.71,11.23-4.07,13.49Z"/></g><rect class="g" x="472.06" y="171.11" width="21.48" height="21.48" rx="6.1" ry="6.1"/></g></g><g><path class="h" d="M325.94,228.39h-79.77c-6.1,0-11.09,4.99-11.09,11.09v106.86c0,4.56,3.73,8.29,8.29,8.29h82.57c4.56,0,8.29-3.73,8.29-8.29v-109.66c0-4.56-3.73-8.29-8.29-8.29Zm-74.32,113.73c-2.57,.5-4.81-1.71-4.33-4.3,.27-1.43,1.44-2.61,2.88-2.88,2.58-.49,4.8,1.73,4.32,4.3-.27,1.43-1.44,2.6-2.86,2.88Zm-.12-23.1c-2.63,.43-4.86-1.96-4.14-4.62,.35-1.3,1.45-2.31,2.77-2.57,2.44-.48,4.57,1.45,4.41,3.84-.11,1.66-1.4,3.09-3.04,3.36Zm.14-23.13c-2.59,.52-4.84-1.71-4.34-4.31,.27-1.43,1.45-2.6,2.88-2.87,2.57-.48,4.78,1.72,4.31,4.29-.26,1.43-1.42,2.61-2.85,2.9Zm-.02-23.11c-2.57,.5-4.81-1.71-4.33-4.3,.27-1.43,1.44-2.61,2.88-2.88,2.58-.49,4.8,1.73,4.32,4.3-.27,1.43-1.44,2.6-2.86,2.88Zm-.12-23.1c-2.63,.43-4.86-1.96-4.14-4.62,.35-1.3,1.45-2.31,2.77-2.57,2.44-.48,4.57,1.45,4.41,3.84-.11,1.66-1.4,3.09-3.04,3.36Zm64.86,89.89h-53.4c-.57,0-1.04-.47-1.04-1.04s.46-1.04,1.04-1.04h53.4c.57,0,1.04,.46,1.04,1.04s-.46,1.04-1.04,1.04Zm0-23.12h-53.4c-.57,0-1.04-.47-1.04-1.04s.46-1.04,1.04-1.04h53.4c.57,0,1.04,.46,1.04,1.04s-.46,1.04-1.04,1.04Zm0-23.12h-53.4c-.57,0-1.04-.46-1.04-1.04s.46-1.04,1.04-1.04h53.4c.57,0,1.04,.46,1.04,1.04s-.46,1.04-1.04,1.04Zm0-23.12h-53.4c-.57,0-1.04-.46-1.04-1.04s.46-1.04,1.04-1.04h53.4c.57,0,1.04,.47,1.04,1.04s-.46,1.04-1.04,1.04Zm0-23.11h-53.4c-.57,0-1.04-.47-1.04-1.04s.46-1.04,1.04-1.04h53.4c.57,0,1.04,.46,1.04,1.04s-.46,1.04-1.04,1.04Z"/><path class="g" d="M353.41,321.48h-14.03c-.1,0-.2,.01-.29,.01v-78.01h4.18c3.51,0,6.38-2.87,6.38-6.38v-6.51c0-3.51-2.87-6.38-6.38-6.38h-6.51c-3.51,0-6.38,2.87-6.38,6.38v2.66h-82.15c-4.56,0-8.29,3.73-8.29,8.29v46.38c-1.33-.76-2.87-1.2-4.5-1.2h-11.56c-5.03,0-9.14,4.11-9.14,9.14v11.56c0,5.03,4.11,9.14,9.14,9.14h11.56c1.64,0,3.17-.44,4.5-1.2v35.84c0,4.56,3.73,8.29,8.29,8.29h82.57c4.56,0,8.29-3.73,8.29-8.29v-2.94c.1,0,.2,.01,.29,.01h14.03c3.51,0,6.38-2.87,6.38-6.38v-14.03c0-3.51-2.87-6.38-6.38-6.38Zm-97.67,25.57c-2.02,0-3.66-1.64-3.66-3.66s1.64-3.66,3.66-3.66,3.66,1.64,3.66,3.66-1.64,3.66-3.66,3.66Zm0-23.12c-2.02,0-3.66-1.64-3.66-3.66s1.64-3.66,3.66-3.66,3.66,1.64,3.66,3.66-1.64,3.66-3.66,3.66Zm0-23.11c-2.02,0-3.66-1.64-3.66-3.66s1.64-3.66,3.66-3.66,3.66,1.64,3.66,3.66-1.64,3.66-3.66,3.66Zm0-23.12c-2.02,0-3.66-1.64-3.66-3.66s1.64-3.66,3.66-3.66,3.66,1.64,3.66,3.66-1.64,3.66-3.66,3.66Zm0-23.12c-2.02,0-3.66-1.64-3.66-3.66s1.64-3.66,3.66-3.66,3.66,1.64,3.66,3.66-1.64,3.66-3.66,3.66Zm65.47,89.84h-53.4c-.57,0-1.04-.47-1.04-1.04s.46-1.04,1.04-1.04h53.4c.57,0,1.04,.46,1.04,1.04s-.46,1.04-1.04,1.04Zm0-23.12h-53.4c-.57,0-1.04-.47-1.04-1.04s.46-1.04,1.04-1.04h53.4c.57,0,1.04,.46,1.04,1.04s-.46,1.04-1.04,1.04Zm0-23.12h-53.4c-.57,0-1.04-.46-1.04-1.04s.46-1.04,1.04-1.04h53.4c.57,0,1.04,.46,1.04,1.04s-.46,1.04-1.04,1.04Zm0-23.12h-53.4c-.57,0-1.04-.46-1.04-1.04s.46-1.04,1.04-1.04h53.4c.57,0,1.04,.47,1.04,1.04s-.46,1.04-1.04,1.04Zm0-23.11h-53.4c-.57,0-1.04-.47-1.04-1.04s.46-1.04,1.04-1.04h53.4c.57,0,1.04,.46,1.04,1.04s-.46,1.04-1.04,1.04Z"/><rect class="d" x="294.35" y="291.48" width="10.62" height="91.59" rx="5.2" ry="5.2" transform="translate(152.74 -89.3) rotate(22.62)"/></g><g><path class="g" d="M553.13,404.12c-1.01-.77-2.09-1.46-3.2-2.05-1.85-.99-3.92-.05-4.36,1.99-.28,1.29-.46,2.63-.51,3.97-.08,2.38,2.3,4.27,4.39,3.54,.63-.22,1.22-.56,1.83-.85v.02c.61-.29,1.25-.53,1.83-.87,1.99-1.19,2.02-4.25,.02-5.75Z"/><path class="g" d="M527.46,398.04c-3.82,1.68-5.53,6.59-3.7,10.66,2.03,4.55,6.6,6.72,10.53,5.02,4.07-1.77,5.72-6.55,3.77-10.93-1.98-4.46-6.58-6.52-10.6-4.75Z"/><path class="g" d="M561.59,414.71c-.58,.29-1,.62-1.26,1.01h4.71c-.88-1.46-1.95-1.77-3.45-1.01Z"/><path class="g" d="M683.87,320.42h-41.24v-30.49h11.64c3.75,0,6.82-3.07,6.82-6.82v-19.67c0-3.75-3.07-6.82-6.82-6.82h-19.67c-3.75,0-6.82,3.07-6.82,6.82v10.52h-133.43v-30.13c0-5.09-4.16-9.26-9.25-9.26h-72.82c-5.09,0-9.26,4.17-9.26,9.26v46.86c0,5.09,4.17,9.26,9.26,9.26h32.29v60.44h-16.93c-5.09,0-9.26,4.17-9.26,9.26v17.32c0,5.09,4.17,9.26,9.26,9.26h16.93v10.24c0,5.09,4.16,9.25,9.25,9.25h63.74c-4.46-9.07-5.02-20.1,.73-28.92,4.5-6.89,10.64-12.36,18.11-15.17,1.4-.53,2.88-.93,4.41-1.2h-54.99c-.64,0-1.16-.51-1.16-1.15s.52-1.16,1.16-1.16h76.02l8.59-14.87-4.78-2.76c-1.04-.6-1.39-1.93-.8-2.97l1.67-2.88h-80.7c-.64,0-1.16-.52-1.16-1.16s.52-1.16,1.16-1.16h90.92l5.65-9.78c.59-1.03,1.93-1.39,2.96-.79l3.43,1.98c1.03,.59,1.39,1.92,.79,2.96l-3.25,5.63h33.39c.64,0,1.16,.52,1.16,1.16s-.52,1.16-1.16,1.16h-34.73l-3.22,5.57,4.79,2.76c1.03,.6,1.39,1.93,.79,2.97l-1.98,3.43c-.6,1.03-1.93,1.39-2.96,.79l-4.79-2.76-6.19,10.72h48.29c.64,0,1.16,.52,1.16,1.16s-.52,1.15-1.16,1.15h-49.62l-3.18,5.5c4.1,3.11,7.62,7.45,10.24,12.96,1.67,3.62,2.6,8.5,.95,13.47-.46,1.38-1.1,2.66-1.99,3.76-1.72,2.12-2.02,4.55-.77,7.21,.34,.73,.51,1.55,.5,2.39h57.53c5.09,0,9.25-4.16,9.25-9.25v-20.68h41.24c5.09,0,9.26-4.16,9.26-9.25v-46.86c0-5.09-4.17-9.26-9.26-9.26Zm-211.63,52.91c-2.24,0-4.05-1.82-4.05-4.05s1.81-4.06,4.05-4.06,4.05,1.82,4.05,4.06-1.81,4.05-4.05,4.05Zm0-25.79c-2.24,0-4.05-1.82-4.05-4.06s1.81-4.05,4.05-4.05,4.05,1.81,4.05,4.05-1.81,4.06-4.05,4.06Zm0-26.12c-2.24,0-4.05-1.81-4.05-4.05s1.81-4.05,4.05-4.05,4.05,1.81,4.05,4.05-1.81,4.05-4.05,4.05Zm147.48-2.89h-133.89c-.64,0-1.16-.52-1.16-1.16s.52-1.15,1.16-1.15h133.89c.64,0,1.16,.51,1.16,1.15s-.52,1.16-1.16,1.16Z"/><polygon class="g" points="572.13 344.64 574.59 346.06 575.41 344.64 572.13 344.64"/><path class="g" d="M559.66,371.92l.86-1.49h-6.67c.41,.06,.82,.13,1.23,.21,1.57,.29,3.09,.73,4.58,1.28Z"/><path class="g" d="M555.83,384.89c-2.92,1.62-4.23,6.27-2.25,10.38,2.08,4.31,6.73,6.25,10.65,4.4,3.9-1.85,5.37-6.71,3.33-11.04-2.25-4.75-6.96-6.37-11.73-3.74Z"/></g><g><path class="h" d="M831.54,160.13h-83.78c-6.63,0-12.05,5.42-12.05,12.05v112.34c0,4.81,3.94,8.75,8.75,8.75h87.08c4.81,0,8.75-3.94,8.75-8.75v-115.65c0-4.81-3.94-8.75-8.75-8.75Zm-78.08,119.88c-2.79,.75-5.3-1.56-4.88-4.32,.25-1.63,1.58-2.96,3.2-3.21,2.76-.42,5.07,2.06,4.34,4.85-.34,1.29-1.38,2.33-2.66,2.68Zm-.4-24.29c-2.63,.44-4.9-1.81-4.47-4.44,.26-1.62,1.6-2.94,3.22-3.18,2.59-.38,4.78,1.8,4.41,4.39-.23,1.62-1.54,2.96-3.16,3.23Zm-.02-24.37c-2.62,.43-4.87-1.8-4.46-4.43,.25-1.63,1.58-2.96,3.21-3.2,2.6-.39,4.81,1.8,4.43,4.4-.24,1.63-1.55,2.96-3.17,3.23Zm.42-24.47c-2.79,.75-5.3-1.56-4.88-4.32,.25-1.63,1.58-2.96,3.2-3.21,2.76-.42,5.07,2.07,4.34,4.85-.34,1.29-1.38,2.33-2.66,2.68Zm-.4-24.29c-2.63,.44-4.9-1.81-4.47-4.44,.26-1.62,1.6-2.94,3.22-3.18,2.59-.38,4.78,1.8,4.41,4.39-.23,1.62-1.54,2.96-3.16,3.23Zm68.39,94.8h-56.31c-.6,0-1.09-.5-1.09-1.09s.49-1.09,1.09-1.09h56.31c.6,0,1.09,.49,1.09,1.09s-.49,1.09-1.09,1.09Zm0-24.38h-56.31c-.6,0-1.09-.5-1.09-1.09s.49-1.09,1.09-1.09h56.31c.6,0,1.09,.49,1.09,1.09s-.49,1.09-1.09,1.09Zm0-24.38h-56.31c-.6,0-1.09-.49-1.09-1.09s.49-1.09,1.09-1.09h56.31c.6,0,1.09,.49,1.09,1.09s-.49,1.09-1.09,1.09Zm0-24.38h-56.31c-.6,0-1.09-.49-1.09-1.09s.49-1.09,1.09-1.09h56.31c.6,0,1.09,.5,1.09,1.09s-.49,1.09-1.09,1.09Zm0-24.37h-56.31c-.6,0-1.09-.5-1.09-1.09s.49-1.09,1.09-1.09h56.31c.6,0,1.09,.49,1.09,1.09s-.49,1.09-1.09,1.09Z"/><path class="g" d="M853.49,186.33h-7.55v-11.79c0-4.81-3.94-8.75-8.75-8.75h-87.08c-4.81,0-8.75,3.94-8.75,8.75v74.95h-6.33c-2.7,0-4.92,2.21-4.92,4.92v6.34c0,2.7,2.21,4.92,4.92,4.92h6.33v24.53c0,4.81,3.94,8.75,8.75,8.75h87.08c4.81,0,8.75-3.94,8.75-8.75v-79.66h7.55c2.89,0,5.25-2.36,5.25-5.25v-13.7c0-2.89-2.36-5.25-5.25-5.25Zm-95.45,99.48c-2.13,0-3.86-1.73-3.86-3.86s1.73-3.86,3.86-3.86,3.86,1.73,3.86,3.86-1.73,3.86-3.86,3.86Zm0-24.38c-2.13,0-3.86-1.73-3.86-3.86s1.73-3.86,3.86-3.86,3.86,1.73,3.86,3.86-1.73,3.86-3.86,3.86Zm0-24.37c-2.13,0-3.86-1.73-3.86-3.86s1.73-3.86,3.86-3.86,3.86,1.73,3.86,3.86-1.73,3.86-3.86,3.86Zm0-24.38c-2.13,0-3.86-1.73-3.86-3.86s1.73-3.86,3.86-3.86,3.86,1.73,3.86,3.86-1.73,3.86-3.86,3.86Zm0-24.38c-2.13,0-3.86-1.73-3.86-3.86s1.73-3.86,3.86-3.86,3.86,1.73,3.86,3.86-1.73,3.86-3.86,3.86Zm69.05,94.74h-56.31c-.6,0-1.09-.5-1.09-1.09s.49-1.09,1.09-1.09h56.31c.6,0,1.09,.49,1.09,1.09s-.49,1.09-1.09,1.09Zm0-24.38h-56.31c-.6,0-1.09-.5-1.09-1.09s.49-1.09,1.09-1.09h56.31c.6,0,1.09,.49,1.09,1.09s-.49,1.09-1.09,1.09Zm0-24.38h-56.31c-.6,0-1.09-.49-1.09-1.09s.49-1.09,1.09-1.09h56.31c.6,0,1.09,.49,1.09,1.09s-.49,1.09-1.09,1.09Zm0-24.38h-56.31c-.6,0-1.09-.49-1.09-1.09s.49-1.09,1.09-1.09h56.31c.6,0,1.09,.5,1.09,1.09s-.49,1.09-1.09,1.09Zm0-24.37h-56.31c-.6,0-1.09-.5-1.09-1.09s.49-1.09,1.09-1.09h56.31c.6,0,1.09,.49,1.09,1.09s-.49,1.09-1.09,1.09Z"/></g></g></g></g></svg>